<?xml version="1.0" encoding="UTF-8"?>
<svg width="7165.4" height="3392.1" version="1.1" viewBox="0 0 7165.4136 3392.1408" xmlns="http://www.w3.org/2000/svg" xmlns:cc="http://creativecommons.org/ns#" xmlns:dc="http://purl.org/dc/elements/1.1/" xmlns:rdf="http://www.w3.org/1999/02/22-rdf-syntax-ns#">
<metadata>
<rdf:RDF>
<cc:Work rdf:about="">
<dc:format>image/svg+xml</dc:format>
<dc:type rdf:resource="http://purl.org/dc/dcmitype/StillImage"/>
<dc:title/>
</cc:Work>
</rdf:RDF>
</metadata>
<g transform="matrix(2.4058 0 0 2.4058 -12515 -4993.3)" stroke-width=".31475">
<path d="m5202.1 3485.2c-0.083-0.2181-0.1142-317.46-0.07-704.97l0.08-704.58 358.35-0.076c235.76-0.05 360.88 0.032 365.74 0.2399 4.0682 0.1737 11.292 0.4559 16.052 0.6273 4.7607 0.1713 9.1515 0.4489 9.7574 0.6168 0.6059 0.168 5.5633 0.589 11.016 0.9356 13.846 0.8802 21.687 1.5226 22.977 1.8828 0.6059 0.1691 3.2263 0.5256 5.823 0.7924 6.669 0.6851 12.587 1.3805 14.793 1.7386 1.0387 0.1685 3.6591 0.5971 5.823 0.9524s5.6341 0.9201 7.7115 1.2552c12.621 2.0356 31.466 5.6713 39.974 7.7121 1.9043 0.4568 4.383 1.0316 5.5082 1.2774 1.825 0.3987 3.0623 0.7329 6.5041 1.7571 0.5477 0.163 1.9641 0.4961 3.1475 0.7402 1.1835 0.2441 3.3556 0.7459 4.8271 1.1153 1.4715 0.3693 4.0235 0.9859 5.6709 1.3702 1.6478 0.3844 3.1819 0.8138 3.4091 0.9544 0.2276 0.1405 1.1457 0.4415 2.0406 0.6689 0.8948 0.2273 2.6893 0.7191 3.9876 1.0929 1.2984 0.3738 3.3748 0.9375 4.6143 1.2529 1.2395 0.3153 3.0899 0.8703 4.112 1.2331 1.022 0.3628 2.8759 0.9431 4.1201 1.2895 3.3414 0.9305 6.2346 1.7673 8.7143 2.5203 1.2118 0.368 3.3364 1.0055 4.7213 1.4167 2.6222 0.7786 4.1654 1.2844 7.8688 2.5792 1.2118 0.4237 3.2656 1.1284 4.564 1.566 1.2983 0.4376 2.8564 0.9846 3.4623 1.2155s2.8721 0.9902 5.036 1.6873c2.164 0.6971 4.9259 1.6336 6.1377 2.081 1.2118 0.4475 2.9115 1.0708 3.7771 1.3852 0.8656 0.3143 3.4859 1.3171 5.8229 2.2284 2.3371 0.9113 5.0282 1.942 5.9804 2.2905 0.9521 0.3484 3.8557 1.5448 6.4524 2.6586 5.5029 2.3603 6.3411 2.7107 11.174 4.6707 1.9908 0.8074 5.1777 2.1451 7.082 2.9727 1.9042 0.8275 4.737 2.0309 6.295 2.6741 1.5581 0.6432 3.6118 1.5276 4.564 1.9654 0.9521 0.4377 2.6518 1.2184 3.777 1.7349 9.917 4.5512 13.624 6.3335 16.052 7.717 1.2983 0.7399 6.8931 3.6111 12.433 6.3806 5.5396 2.7695 10.922 5.5481 11.961 6.1747 4.5366 2.7364 9.261 5.4666 10.892 6.2944 3.2819 1.6655 5.0436 2.6567 7.3092 4.1124 1.2417 0.7979 3.0367 1.8446 3.9889 2.326 0.9521 0.4813 3.6055 2.0514 5.896 3.489 9.1738 5.7572 15.733 9.8517 17.012 10.619 0.7412 0.4445 1.9452 1.2446 2.6754 1.778 0.7305 0.5335 2.0365 1.3795 2.902 1.8802 2.2779 1.3175 13.921 9.1921 15.349 10.382 0.4866 0.4051 2.1142 1.5434 7.6334 5.339 0.7554 0.5193 2.5986 1.8649 4.0962 2.9901 1.4976 1.1253 4.5158 3.3746 6.7071 4.9986 2.1917 1.624 4.4803 3.3658 5.0862 3.8707 3.7846 3.1539 9.322 7.45 11.693 9.0717 0.9943 0.6801 5.6633 4.5131 8.6085 7.067 0.5193 0.4504 1.5816 1.3168 2.3606 1.9255 0.7791 0.6087 2.0538 1.6587 2.8328 2.3334 0.7791 0.6747 2.8671 2.3684 4.6398 3.7638 1.773 1.3954 5.1016 4.2567 7.3967 6.3585 2.2955 2.1018 5.078 4.6158 6.1837 5.5866 1.1057 0.9709 2.947 2.6353 4.0918 3.6988 1.1448 1.0634 2.9426 2.6923 3.9952 3.6196 4.2422 3.738 10.092 9.3599 18.351 17.637 11.056 11.08 27.371 27.945 27.816 28.754 0.1876 0.3409 1.9121 2.3195 3.8321 4.3969 1.9203 2.0774 4.4066 4.9102 5.5252 6.2951s3.2725 4.0052 4.7862 5.8229c1.5139 1.8177 3.642 4.4019 4.7295 5.7425 1.0871 1.3407 2.5926 3.1112 3.3452 3.9345 0.7525 0.8232 1.6024 1.8546 1.8885 2.2919s3.0377 3.9458 6.1144 7.7967c3.0767 3.8508 6.4506 8.2068 7.4974 9.6799 1.0469 1.473 3.062 4.1456 4.478 5.9391 1.4161 1.7934 3.1413 4.0728 3.8337 5.0653 1.7472 2.5042 3.9631 5.6022 5.7383 8.0223 4.812 6.561 9.3422 13.239 16.261 23.97 1.7129 2.6566 3.6344 5.6092 4.2699 6.5613 0.6355 0.9522 2.2795 3.6847 3.6531 6.0723 5.2774 9.1737 6.3964 11.092 6.6482 11.397 0.5782 0.6997 4.9158 8.1844 7.5698 13.062 1.5543 2.8564 3.5495 6.3973 4.4337 7.8688 0.8844 1.4715 1.8236 3.1003 2.0874 3.6197 0.2635 0.5193 1.5539 2.998 2.8674 5.5082 3.4639 6.62 6.5419 12.737 10.452 20.774 5.8006 11.921 7.131 14.761 9.3636 19.987 1.1835 2.7699 2.7635 6.335 3.5114 7.9225 0.7482 1.5875 1.36 3.0554 1.36 3.2621 0 0.2066 0.2663 0.8907 0.5918 1.5201 0.3254 0.6295 1.0852 2.3485 1.6886 3.8199 0.6034 1.4715 1.7491 4.2335 2.5458 6.1377 0.7966 1.9043 1.5435 3.8873 1.6593 4.4066 0.1162 0.5193 0.3258 1.0914 0.4659 1.2713 0.14 0.1799 0.6928 1.5254 1.2275 2.9902 1.0198 2.7917 1.4737 3.9948 3.2602 8.6434 0.599 1.5581 1.26 3.3285 1.469 3.9344s0.9166 2.5889 1.5722 4.4066c3.0103 8.3452 4.2095 11.768 5.4037 15.423 0.7069 2.1639 2.3811 7.2629 3.7204 11.331s2.6798 8.2466 2.9795 9.2852c0.2993 1.0387 0.7387 2.3843 0.9763 2.9902 0.4032 1.0276 1.0837 3.4004 1.7151 5.9803 0.3497 1.4284 0.7019 2.6761 1.7324 6.1377 0.4637 1.5581 1.1054 3.8951 1.4259 5.1935 0.3204 1.2983 0.8828 3.5646 1.2498 5.0361 0.367 1.4714 1.0022 4.1626 1.4117 5.9803 0.6824 3.029 1.3525 5.7842 2.5265 10.387 1.8168 7.122 2.6056 10.619 3.7979 16.839 0.4315 2.2505 1.0648 5.5082 1.4072 7.2394 0.8949 4.5204 1.8259 9.1956 2.1939 11.016 0.5212 2.5767 2.2133 12.626 2.8359 16.839 0.1662 1.1252 0.4479 2.5416 0.6264 3.1475 0.4252 1.446 1.5674 10.442 3.2772 25.81 0.4142 3.7219 0.8416 7.1213 0.9502 7.5541 0.1898 0.7576 0.4215 3.4903 1.7463 20.616 0.3346 4.3278 0.7437 9.4977 0.9087 11.488 1.2766 15.393 1.2766 67.539 0 82.308-0.1646 1.9043-0.5741 7.0741-0.91 11.488-1.3147 17.278-1.5564 20.025-1.8558 21.088-0.1706 0.6059-0.604 4.0761-0.9628 7.7115-1 10.123-2.2458 20.409-2.8746 23.735-0.1832 0.9678-0.5345 2.9636-0.7806 4.4351-0.413 2.4696-0.9056 5.3588-2.1725 12.748-0.2672 1.5581-0.621 3.6119-0.7859 4.564-0.2952 1.7016-0.9792 5.1855-2.2093 11.252-0.3421 1.6879-0.9729 4.8394-1.4016 7.0033-1.7242 8.7049-2.6939 12.964-3.7991 16.682-0.5929 1.9957-1.433 5.359-2.5155 10.072-1.9662 8.5615-3.3889 14.104-5.3328 20.774-0.2777 0.9521-0.7092 2.4393-0.9591 3.3049-1.298 4.4933-2.0969 7.037-4.7449 15.108-4.1689 12.706-5.5 16.812-5.969 18.413-0.762 2.6012-4.918 13.887-8.172 22.19-0.407 1.0387-1.1907 3.0924-1.7415 4.5639s-1.1073 2.8171-1.237 2.9902c-0.1294 0.1731-0.4828 1.0938-0.785 2.0459-0.5206 1.6393-2.2432 5.9707-3.1925 8.0262-0.2399 0.5194-0.7803 1.8649-1.2015 2.9902-0.4208 1.1252-1.8535 4.4537-3.1837 7.3967-2.3556 5.2112-3.5265 8.0065-5.0458 12.044-0.7243 1.9252-13.24 27.19-17.968 36.271-1.3068 2.5101-3.4204 6.3344-4.6964 8.4983-1.276 2.164-3.2231 5.7049-4.3263 7.8689-2.3235 4.5573-7.3218 13.4-8.0942 14.321-0.2906 0.3462-1.5697 2.4708-2.8423 4.7213-2.2621 3.9999-6.0687 10.316-8.2025 13.61-0.5876 0.9069-1.7182 2.6773-2.5123 3.9345-4.2564 6.7363-5.2766 8.3107-6.4421 9.9418-0.7019 0.9823-2.5911 3.6984-4.1985 6.0354-1.6071 2.3371-3.5117 5.0458-4.2319 6.019-0.7204 0.9736-2.8985 4.0188-4.8406 6.7673-4.4755 6.3341-4.2205 5.9882-7.0275 9.5433-1.3062 1.6544-2.6518 3.4535-2.9902 3.998-1.2829 2.0645-3.343 4.8394-7.2091 9.7118-2.1982 2.7698-4.8006 6.075-5.7833 7.3451-0.9826 1.27-3.4887 4.3152-5.5686 6.7672-2.0799 2.4519-3.992 4.7653-4.2492 5.1412-0.2571 0.3755-1.8838 2.377-3.6149 4.4474-1.7312 2.0708-3.8558 4.6562-4.7213 5.7456-0.8656 1.0893-2.9896 3.4519-4.7198 5.2504-1.7302 1.7982-3.2734 3.5088-3.4292 3.8013-0.9399 1.7604-33.05 34.475-42.884 43.69-2.0541 1.9247-5.8875 5.5196-8.5188 7.9885-2.6317 2.4689-5.2212 4.7547-5.755 5.0792-0.5338 0.3248-1.0566 0.8152-1.1624 1.0903-0.1054 0.2748-0.7903 0.9468-1.5218 1.4932-1.8416 1.3751-7.861 6.3816-9.5871 7.9736-1.841 1.6981-5.9309 5.1022-9.0089 7.4984-1.3342 1.0387-3.0065 2.4054-3.7163 3.0368s-2.6593 2.1894-4.3323 3.4623c-1.6732 1.2728-4.506 3.483-6.295 4.9117-3.0491 2.4343-16.061 12.19-18.577 13.927-0.6267 0.4328-2.4633 1.6931-4.0815 2.8004-1.6184 1.1073-3.3889 2.3821-3.935 2.8328-1.6761 1.3836-5.4302 4.0216-9.4757 6.6589-2.1221 1.3834-4.6008 3.078-5.5082 3.7661-0.9071 0.6877-1.7557 1.2511-1.8854 1.2521-0.3512 0-11.03 6.8644-13.888 8.9248-1.3632 0.9827-4.9042 3.1545-7.8688 4.8264-2.9647 1.672-5.8154 3.3537-6.3348 3.7377-0.5193 0.3837-1.6524 1.0727-2.518 1.5313-2.3166 1.2276-5.0493 2.8067-5.546 3.2049-0.2389 0.1913-1.4258 0.8866-2.6376 1.5451-1.2118 0.6581-3.5489 2.0043-5.1935 2.9914-3.2567 1.9543-7.6403 4.2942-14.006 7.476-2.2505 1.125-4.1626 2.1533-4.2492 2.2855-0.087 0.1319-4.0525 2.1671-8.8131 4.5224-4.7607 2.3553-9.0807 4.5157-9.6 4.8015-2.6292 1.4454-5.9728 2.9798-14.636 6.7166-2.8564 1.2322-7.1055 3.2139-9.4426 4.404-2.337 1.1904-4.8157 2.3695-5.5082 2.6207-0.6925 0.2511-3.3128 1.3018-5.8229 2.3351-2.5102 1.0334-5.343 2.1303-6.2951 2.4375-3.1945 1.0308-7.0738 2.3937-8.0263 2.8199-0.5193 0.2322-1.6524 0.6688-2.518 0.97-3.0924 1.0765-10.58 3.9272-11.016 4.1941-0.3232 0.198-0.8866 0.4073-6.2951 2.3396-1.7311 0.6185-4.2806 1.5709-5.6655 2.117-1.385 0.5458-3.1554 1.1734-3.9345 1.3947-0.779 0.2213-2.337 0.7582-3.4623 1.1932-3.0172 1.1665-4.658 1.723-6.7672 2.2959-1.0387 0.282-3.1632 0.8608-4.7213 1.286-1.558 0.4253-3.3285 0.9053-3.9344 1.0664-0.6059 0.1615-2.943 0.9468-5.1935 1.7457-6.6737 2.3682-8.7913 2.9712-20.931 5.9601-1.1252 0.277-2.4708 0.6371-2.9902 0.8001-0.5193 0.1631-1.9093 0.5206-3.0886 0.7951-1.1794 0.2742-2.7375 0.7479-3.4623 1.0525-0.7249 0.3047-2.451 0.8036-3.8359 1.1086-1.385 0.3047-2.8722 0.6824-3.305 0.8391-0.4328 0.1565-1.7783 0.5068-2.9901 0.7781-1.2118 0.2716-3.4072 0.7762-4.8787 1.1215-1.4715 0.3456-4.5167 0.9729-6.7672 1.394-4.1047 0.7687-8.6145 1.6805-12.433 2.5143-7.7949 1.7015-13.692 2.8151-19.987 3.7742-7.0473 1.0736-16.904 2.6864-20.016 3.275-3.2429 0.6132-13.064 1.8036-23.578 2.858-3.5489 0.3557-6.8705 0.7831-7.381 0.9493-0.5109 0.1662-3.4853 0.4557-6.6099 0.643-3.1248 0.1873-6.177 0.4637-6.7829 0.6141-0.6059 0.1502-5.4846 0.4331-10.842 0.6289-6.2863 0.2294-9.9695 0.4872-10.387 0.7271-0.9792 0.5628-738.86 0.7012-739.07 0.1388zm1566.8 0c-0.082-0.2162-0.113-150.04-0.069-332.93l0.08-332.54 550.5 0.034c409.07 0.025 551.44 0.1263 554.12 0.3925 14.545 1.4399 27.89 3.131 29.272 3.7095 0.2597 0.1088 2.5259 0.5251 5.0361 0.9252 2.5101 0.4002 5.2013 0.8679 5.9803 1.0395s3.0453 0.664 5.0361 1.0942c8.3501 1.8043 12.855 2.9818 21.246 5.5535 1.2118 0.3715 3.1947 0.9368 4.4065 1.2563 2.3257 0.6133 6.8069 2.0736 7.8689 2.5642 0.3462 0.16 2.6124 0.9794 5.036 1.8209 4.124 1.4319 10.522 3.7126 13.643 4.8629 0.7523 0.2773 2.0271 0.8403 2.8328 1.2513 0.8061 0.4109 2.2445 1.066 3.1967 1.4557 0.9521 0.3898 1.9436 0.8116 2.2033 0.9375 0.2596 0.1259 1.7468 0.7618 3.3049 1.4133 4.1837 1.7492 7.3728 3.2544 8.9705 4.2338 0.779 0.4775 2.9036 1.5382 4.7213 2.357 5.5853 2.5158 9.1118 4.4238 14.636 7.9185 1.2118 0.7666 2.5574 1.5743 2.9902 1.7948 1.7969 0.9156 8.7222 5.1244 9.5455 5.8013 0.4892 0.4023 1.0164 0.7315 1.1709 0.7315 0.3466 0 6.8812 4.0931 8.4465 5.2905 0.6263 0.4792 1.7053 1.2506 2.3978 1.7143 0.6924 0.4636 2.6045 1.7697 4.2491 2.9023s4.1557 2.848 5.58 3.8121c1.4246 0.964 3.2659 2.3462 4.0918 3.0715 1.8526 1.6267 4.3773 3.6678 5.3159 4.2978 0.3868 0.2597 2.179 1.7469 3.9826 3.3049 1.8035 1.5581 3.6867 3.1161 4.1849 3.4623 1.3595 0.9449 4.1608 3.5088 9.5972 8.7835 2.693 2.6131 7.1128 6.8932 9.8216 9.5116 4.2045 4.064 13.492 13.812 16.377 17.188 1.2953 1.5161 5.0965 5.8978 6.2171 7.1659 1.0141 1.1481 4.5359 5.6394 5.3439 6.8153 0.2559 0.3727 1.1296 1.6474 1.9414 2.8328 0.8117 1.1854 2.3697 3.2349 3.4623 4.5546 1.0925 1.3197 2.5529 3.2119 3.2454 4.2049 0.6924 0.9931 1.8429 2.6045 2.5564 3.5809 0.7133 0.9765 1.7485 2.5545 2.3002 3.5066 1.3034 2.2495 2.9084 4.7085 5.0676 7.7654 0.9575 1.3553 1.9149 2.8182 2.1277 3.251 0.3859 0.7842 2.3204 3.8701 3.8743 6.1805 1.4312 2.128 3.05 5.1428 6.1144 11.389 1.6412 3.3445 3.322 6.5313 3.7352 7.0819 0.7123 0.949 4.6981 9.5049 5.5249 11.86 0.2128 0.6059 0.8218 2.0223 1.3538 3.1475 0.9537 2.0179 1.4888 3.1996 2.7069 5.9803 0.3411 0.7791 1.1479 2.6204 1.7928 4.0919 0.6446 1.4714 1.3607 3.2419 1.5914 3.9344 1.3654 4.0985 4.6351 13.214 5.6404 15.725 0.4825 1.2049 0.9858 2.6213 1.118 3.1475 0.1325 0.5262 0.5458 1.9483 0.9188 3.1601 2.3389 7.6033 3.371 11.51 5.5289 20.931 0.4164 1.8177 1.0497 4.5089 1.407 5.9803 0.3575 1.4715 0.9156 4.3043 1.2401 6.2951 0.5386 3.304 0.8096 4.5533 1.9112 8.8131 0.6581 2.5444 1.6405 10.295 2.9719 23.449 0.2455 2.4236 0.5363 4.8315 0.6465 5.3508 0.9254 4.3615 1.8391 38.702 1.1221 42.177-0.1785 0.8656-0.463 4.1941-0.632 7.3967-0.2971 5.6247-1.0538 13.952-1.4447 15.895-0.1042 0.5193-0.5323 4.1311-0.9506 8.0262-0.8439 7.8538-1.1693 10.182-1.7176 12.275-0.6597 2.5196-1.2974 5.4384-1.8914 8.6558-0.3198 1.7311-0.8794 4.3514-1.2439 5.8229s-1.0044 4.2335-1.422 6.1377c-0.4177 1.9043-1.0441 4.6663-1.3916 6.1377-0.3475 1.4715-0.7909 3.3836-0.9851 4.2492s-0.7114 2.7777-1.1492 4.2492c-0.4382 1.4715-1.1542 3.8793-1.5917 5.3508-0.7123 2.3972-1.8671 5.7506-4.8768 14.164-3.1945 8.9293-5.3675 14.476-7.3731 18.819-0.5826 1.2618-1.0595 2.4541-1.0595 2.6499s-0.4249 1.1089-0.9443 2.0292c-0.5193 0.9203-0.9442 1.8338-0.9442 2.0298 0 1.063-11.408 23.614-14.632 28.925-2.8507 4.6958-4.1982 6.9189-4.9596 8.1836-1.0255 1.7025-4.9083 7.5428-6.0968 9.1701-0.5861 0.8023-1.0654 1.5388-1.0654 1.6367 0 0.5867-6.0653 9.3391-8.8761 12.809-1.1595 1.4318-2.8847 3.7506-3.8334 5.1528-0.9486 1.4026-3.0934 4.1079-4.766 6.0121-1.6726 1.9043-3.4758 4.0997-4.0071 4.8787-1.5086 2.2128-4.5822 5.5954-14.014 15.423-12.748 13.283-20.676 20.752-27.769 26.16-1.7919 1.3664-2.6191 2.0434-4.2234 3.457-0.7066 0.6226-1.5171 1.2599-1.8007 1.4164-0.2839 0.1564-1.2754 0.9537-2.2032 1.7714-2.2565 1.9883-6.0685 4.9319-7.8736 6.0798-0.8058 0.5124-3.0664 2.0648-5.0238 3.4497-1.9575 1.3849-4.0128 2.8013-4.5674 3.1476-0.5546 0.3462-2.372 1.6002-4.0389 2.7868-1.6667 1.1866-4.405 2.9294-6.0855 3.8727-1.6808 0.9433-4.3304 2.4661-5.8884 3.3843-1.558 0.9178-4.4399 2.5746-6.4043 3.6813-1.9641 1.107-4.0887 2.3283-4.7213 2.7138-0.6324 0.3859-2.4639 1.3428-4.0701 2.1262-1.6062 0.7837-3.5183 1.8064-4.2492 2.2722-1.9096 1.2175-9.6101 4.9649-15.65 7.6167-2.8564 1.254-5.76 2.5451-6.4524 2.8697-2.0976 0.9823-7.2989 3.1418-7.5674 3.1418-0.1381 0-1.1831 0.407-2.3222 0.9046-1.1391 0.4973-2.7793 1.1278-3.6449 1.4004-0.8655 0.2729-2.7777 0.9373-4.2492 1.4765-1.4714 0.5395-3.0934 1.1114-3.6045 1.2713-0.5112 0.1599-1.6443 0.5687-2.518 0.9087-0.8738 0.3399-2.8637 0.9943-4.4217 1.4538-1.558 0.4596-3.3994 1.0164-4.0918 1.237-2.9685 0.9465-5.4755 1.7072-7.2394 2.197-1.0387 0.2886-2.4566 0.7261-3.1507 0.9726-0.6943 0.2464-2.5356 0.7447-4.0918 1.1073-1.5564 0.3626-3.9627 0.9392-5.3476 1.2817-1.3849 0.3427-3.31 0.8038-4.2778 1.0254-0.9682 0.2213-1.915 0.4983-2.1045 0.6154s-1.593 0.4177-3.1189 0.6676c-5.5258 0.9055-8.0845 1.3931-8.8839 1.6927-1.0604 0.3975-2.3298 0.6361-6.1657 1.1586-1.7312 0.2361-5.0597 0.7227-7.3968 1.0812-2.337 0.3588-5.1698 0.7881-6.295 0.9543-2.4076 0.3554-8.2098 0.8615-14.164 1.2358-2.337 0.1466-251.59 0.2823-553.9 0.3009-439.46 0.028-549.68-0.045-549.8-0.3592zm0-744.39c-0.082-0.2164-0.113-149.96-0.069-332.77l0.08-332.38 549.49-0.079c357.18-0.051 550.78 0.029 553.18 0.2299 2.0282 0.1698 5.3165 0.529 7.3073 0.7982s5.5318 0.6873 7.8689 0.929c6.149 0.6362 8.8297 0.996 12.905 1.7323 4.7005 0.8492 9.5817 1.6935 14.479 2.5042 2.1639 0.3583 4.2885 0.7826 4.7213 0.9429s1.7783 0.4601 2.9901 0.6662c1.2118 0.2062 2.5574 0.4913 2.9902 0.6336 0.4328 0.1424 1.2826 0.3543 1.8885 0.4711s1.9515 0.4838 2.9902 0.8157c3.0024 0.9593 4.5573 1.434 7.082 2.1625 1.2983 0.3746 3.7062 1.0807 5.3508 1.5689 1.6446 0.4884 3.3442 0.9627 3.777 1.0542 1.3387 0.283 4.7534 1.375 7.5541 2.4157 1.4715 0.5468 3.242 1.1848 3.9344 1.4177 0.6925 0.2329 2.0381 0.7302 2.9902 1.1052 2.191 0.8629 7.138 2.6581 9.6 3.4837 1.0387 0.3483 2.7384 1.0451 3.7771 1.5484 1.0386 0.5033 3.0924 1.41 4.5639 2.0149 1.4715 0.6048 3.563 1.5304 4.6477 2.0568 1.0846 0.5265 2.0742 0.9572 2.1988 0.9572 0.7894 0 17.629 8.493 22.111 11.152 2.1639 1.2836 5.28 3.1323 6.9246 4.1082 1.6445 0.9759 3.9816 2.3931 5.1934 3.1494 1.2118 0.7564 4.0446 2.44 6.2951 3.7415s4.8708 2.9387 5.8229 3.6383c2.13 1.5649 2.6364 1.9153 7.5541 5.2275 2.164 1.4574 4.4525 3.0001 5.0855 3.4283 0.633 0.4281 3.0094 2.2368 5.281 4.0193 2.2712 1.7824 4.5189 3.5241 4.9948 3.8703 0.4756 0.3462 2.2775 1.8473 4.0043 3.3356 1.7267 1.4884 3.7626 3.1525 4.5239 3.6982 2.2461 1.6091 11.62 10.41 18.583 17.448 7.907 7.9914 16.869 17.416 17.573 18.482 0.2861 0.4328 2.0651 2.5574 3.9533 4.7213 1.8879 2.164 3.6593 4.2886 3.9363 4.7214 0.277 0.4327 1.0746 1.5196 1.7727 2.4151 1.7242 2.2127 4.247 5.6363 5.2032 7.0614 0.4328 0.6449 1.6367 2.2182 2.6754 3.4962s2.1718 2.7253 2.518 3.2163c0.3463 0.491 1.0598 1.4755 1.5858 2.1879 0.5259 0.7124 1.5111 2.2158 2.1891 3.3411 1.3745 2.2814 2.9854 4.7589 5.8324 8.9705 3.9505 5.8436 8.9456 14.378 12.159 20.774 1.8262 3.6355 3.4954 6.8223 3.7091 7.082s0.9531 1.6761 1.6433 3.1476c0.69 1.4714 1.705 3.6341 2.2552 4.8059s1.0003 2.2622 1.0003 2.4231c0 0.2969 3.2067 7.535 5.3732 12.128 1.2363 2.6213 1.4608 3.1914 3.0997 7.8689 0.5458 1.558 1.1882 3.2577 1.4271 3.777 0.4214 0.9155 1.8375 4.8229 2.7947 7.7115 0.2584 0.779 1.1073 3.3285 1.8869 5.6656 0.7797 2.337 1.7894 5.5239 2.2436 7.082 0.4545 1.558 0.9735 3.2577 1.1536 3.777 0.18 0.5193 0.5152 1.7233 0.745 2.6754 1.2933 5.3599 1.8498 7.7432 2.5344 10.859 0.4186 1.9043 1.0607 4.6663 1.4271 6.1377 0.366 1.4715 0.9272 4.1627 1.2464 5.9804 0.3195 1.8177 0.8102 4.2255 1.0909 5.3508 0.5159 2.0699 0.8741 3.7781 1.4507 6.9246 0.3491 1.9045 1.6138 12.902 2.3346 20.302 0.2527 2.5967 0.5996 5.2171 0.7708 5.823 0.8492 3.0101 1.6802 37.981 0.983 41.39-0.1769 0.8656-0.4586 4.1233-0.6261 7.2394-0.1671 3.116-0.5907 8.1442-0.9414 11.174-0.3503 3.0296-0.9899 8.6243-1.4208 12.433-0.4309 3.8086-0.8759 7.4204-0.9889 8.0263s-0.4014 2.1639-0.6409 3.4623c-0.2395 1.2983-0.6644 3.2813-0.9446 4.4065-0.2801 1.1253-0.7661 3.5331-1.0802 5.3508-0.3138 1.8177-0.8725 4.4381-1.2414 5.823s-0.864 3.5095-1.1001 4.7213c-0.236 1.2118-0.5907 2.8406-0.7881 3.6197-0.197 0.779-0.6267 2.5495-0.9546 3.9344-0.3277 1.3849-0.7973 3.3679-1.0435 4.4065-0.2458 1.0387-0.6698 2.5968-0.9423 3.4623-0.5833 1.854-1.4095 4.5825-2.5738 8.4984-0.463 1.558-1.2426 3.8951-1.7321 5.1934-0.4897 1.2984-1.4696 4.0772-2.1777 6.1751-0.7079 2.0979-1.5002 4.2225-1.7605 4.7213-0.26 0.4988-0.4737 1.0792-0.4749 1.2897 0 0.2105-0.2015 0.8479-0.4451 1.4164-0.2439 0.5685-0.8926 2.2375-1.4416 3.709-0.5489 1.4715-1.4935 3.7377-2.0994 5.0361-2.8347 6.0755-5.1437 11.284-5.1437 11.604 0 0.4978-4.4978 9.9501-5.0376 10.586-0.2937 0.3462-1.8895 3.3914-3.5464 6.7672-1.6571 3.3757-3.8384 7.5039-4.8472 9.1738-4.9183 8.1403-6.1918 10.177-8.7889 14.056-1.5416 2.3023-3.0172 4.5683-3.2794 5.0354-0.4318 0.7696-2.2848 3.5343-2.89 4.3116-0.8555 1.0993-2.5294 3.4589-3.7957 5.3508-0.8108 1.2118-1.8683 2.6553-2.3496 3.2077s-1.7249 2.1479-2.7635 3.5455c-1.0387 1.3976-2.6323 3.4778-3.541 4.6225-0.909 1.1448-1.6525 2.1795-1.6525 2.2994 0 0.1198-0.7438 1.0265-1.6524 2.0149-0.9091 0.9884-2.1482 2.4438-2.7541 3.2343s-1.4558 1.8133-1.8886 2.2729-1.2996 1.473-1.926 2.252c-3.7839 4.7044-19.168 20.723-24.184 25.18-1.2659 1.1253-4.2013 3.8066-6.5232 5.9586-2.3217 2.1519-5.2794 4.7176-6.5727 5.7015-1.2937 0.984-3.4472 2.7297-4.7862 3.8794-5.8088 4.9876-9.4328 7.7095-18.487 13.885-2.4236 1.653-5.4688 3.7709-6.7672 4.7065-1.2983 0.9356-3.4937 2.3672-4.8787 3.1812-1.3849 0.8141-4.1141 2.5312-6.065 3.8158-1.9508 1.2847-5.2157 3.2361-7.2557 4.3366-2.0399 1.1005-4.3392 2.425-5.1091 2.9433-0.7698 0.5183-2.8161 1.6204-4.5472 2.449-1.7312 0.8286-3.8557 1.9272-4.7213 2.4414-2.1089 1.2528-9.5714 4.9608-12.118 6.0213-1.1253 0.4686-2.6125 1.1167-3.305 1.4401-6.8733 3.2107-14.828 6.4981-18.256 7.5447-1.0387 0.3172-2.8007 0.9421-3.9155 1.3887-1.1146 0.4466-2.1791 0.8121-2.3651 0.8121-0.1863 0-0.8672 0.2832-1.513 0.6295-0.6462 0.3462-1.3865 0.6295-1.6456 0.6295-0.2593 0-1.7116 0.4944-3.2275 1.0986-1.5158 0.6042-3.8185 1.3803-5.1169 1.7247s-3.3169 0.9123-4.4853 1.2621c-1.1686 0.3497-3.0808 0.9229-4.2491 1.2737-5.2681 1.5812-11.106 3.1343-14.243 3.7889-0.779 0.1625-2.1245 0.4997-2.9901 0.7493-2.3371 0.6739-8.6249 1.9317-15.895 3.1799-2.5102 0.431-6.1928 1.0663-8.1836 1.412-12.125 2.1049-14.139 2.3447-23.507 2.7987-10.906 0.5284-1104.9 0.4739-1105.1-0.055z" fill="#6d6d6d"/>
<path d="m5202.3 2780.5v-704.74l359.84 0.037c197.91 0.02 362.39 0.1582 365.51 0.3065 3.116 0.1483 9.1357 0.4088 13.377 0.5789s8.4197 0.3807 9.2853 0.4682c0.8655 0.087 6.3186 0.5115 12.118 0.9425 14.33 1.0648 22.036 1.7072 22.977 1.9154 0.8049 0.178 9.1515 1.196 14.426 1.7595 1.6157 0.1726 4.3068 0.5272 5.9804 0.7881 6.1959 0.9655 17.518 2.815 20.984 3.4278 1.3849 0.2448 3.8636 0.662 5.5082 0.9271s3.2734 0.5655 3.6197 0.6675c0.3462 0.102 2.4 0.5182 4.5639 0.9248 2.1639 0.4067 5.3508 1.0214 7.082 1.3661 1.7311 0.3447 3.9973 0.7899 5.036 0.9894 2.3758 0.4563 9.4458 2.1134 10.702 2.5084 0.5193 0.1633 1.8463 0.4562 2.9486 0.6508 1.1026 0.1947 2.2357 0.4806 2.518 0.6354 0.2827 0.1547 1.2219 0.4404 2.0875 0.6348 0.8655 0.1943 2.7777 0.6213 4.2492 0.9488 1.4714 0.3275 3.8085 0.8918 5.1934 1.254 1.3849 0.3621 3.8636 0.9877 5.5082 1.3901 1.6446 0.4023 3.4151 0.885 3.9344 1.0725 0.5194 0.1875 1.7233 0.5539 2.6754 0.8142 6.714 1.8358 9.0118 2.4873 11.646 3.3022 1.6446 0.5088 4.5482 1.3687 6.4525 1.911 3.9483 1.1242 9.809 2.8988 12.59 3.8121 1.0386 0.3411 2.5259 0.8062 3.3049 1.0334 0.779 0.2273 2.4787 0.7948 3.777 1.2613 1.2984 0.4665 5.4767 1.8869 9.2853 3.1565 7.6154 2.5387 10.799 3.6875 18.098 6.5309 2.6833 1.0453 5.6577 2.1807 6.6099 2.5231 0.9521 0.3425 3.2891 1.302 5.1934 2.1322 1.9043 0.8301 4.737 2.0332 6.2951 2.6733 7.3432 3.0174 10.013 4.1321 13.22 5.5206 1.9042 0.8245 4.737 2.0196 6.295 2.6559 1.5581 0.6362 3.541 1.4962 4.4066 1.911 0.8656 0.4149 2.4236 1.1289 3.4623 1.5867 5.9913 2.6409 13.962 6.4666 16.49 7.9152 1.3176 0.7549 6.9281 3.6361 12.468 6.4026 5.5396 2.7666 10.922 5.5408 11.961 6.165 6.7417 4.051 8.8056 5.2496 10.141 5.8891 0.8278 0.3964 1.9801 0.994 2.5605 1.3279 3.315 1.9071 5.4166 3.1633 6.8135 4.0732 0.8655 0.5638 2.078 1.2354 2.694 1.4924 0.6162 0.2571 2.2249 1.1587 3.5752 2.0036 3.3663 2.1066 7.0143 4.4386 8.5242 5.4492 0.6925 0.4635 2.2958 1.4723 3.5633 2.2418 1.2672 0.7696 2.6418 1.6117 3.0544 1.8714 0.4123 0.2597 1.9251 1.17 3.3613 2.0229s3.1069 1.9308 3.7128 2.3953c0.6059 0.4644 2.2348 1.5292 3.6197 2.3661 1.3849 0.8368 2.6597 1.6457 2.8328 1.7975 0.1731 0.1517 2.122 1.4466 4.3313 2.8776 2.2089 1.4309 4.2627 2.8368 4.5639 3.1241 0.8527 0.8138 3.8586 2.9666 7.7644 5.5608 2.2036 1.4635 3.5306 2.4229 4.0266 2.9115 0.3079 0.3029 0.6657 0.5509 0.7957 0.551 0.1297 2e-4 0.7649 0.4605 1.4111 1.023s1.8904 1.5184 2.7648 2.1243c0.8747 0.6059 2.3581 1.6682 3.2964 2.3607 0.9383 0.6924 2.3786 1.7547 3.2004 2.3606s2.0856 1.5974 2.8079 2.2033c0.7227 0.6059 1.7208 1.4169 2.2181 1.8023 0.4976 0.3853 2.1992 1.7309 3.7818 2.9901 1.5823 1.2593 3.6924 2.8561 4.6889 3.5486 0.9965 0.6924 2.2165 1.6131 2.7113 2.0459s1.2886 1.0967 1.7635 1.4753c0.4753 0.3786 1.9972 1.658 3.3821 2.8431 1.3849 1.1852 2.8224 2.3626 3.1944 2.6166 0.372 0.2539 2.4258 1.9098 4.5639 3.6796 2.1382 1.7698 4.6291 3.8236 5.5353 4.5639 0.9065 0.7404 3.2435 2.8665 5.1934 4.7247 1.9503 1.8583 3.6531 3.3809 3.7847 3.3836 0.1312 0 2.0474 1.6693 4.2583 3.7034 2.2111 2.0341 4.93 4.4773 6.0423 5.4295 6.4506 5.5211 37.011 36.064 44.762 44.735 0.9858 1.1032 3.3993 3.7762 5.3634 5.9402 1.9641 2.1639 4.7692 5.421 6.2337 7.238 1.4642 1.817 3.1582 3.8478 3.7641 4.5129s1.2301 1.4447 1.3869 1.7325c0.3229 0.5926 2.0348 2.6477 3.1916 3.8314 0.4249 0.4347 0.7724 0.9041 0.7724 1.0432s1.1513 1.5539 2.5589 3.1441c1.4073 1.5903 2.7837 3.2454 3.0588 3.6782 0.2748 0.4328 1.5007 1.9908 2.7242 3.4623 1.2234 1.4715 2.7129 3.3128 3.3103 4.0918 0.597 0.779 2.0795 2.6468 3.2939 4.1507 1.2143 1.5038 3.4793 4.4782 5.0332 6.6098 1.5536 2.1315 3.823 5.1503 5.043 6.7084 1.2197 1.558 2.7812 3.6781 3.4698 4.7113 0.6887 1.0332 2.3852 3.4023 3.7702 5.2646 1.3849 1.8623 3.0137 4.0995 3.6196 4.9716s1.739 2.4933 2.5181 3.6026c0.779 1.1092 2.0248 2.9132 2.7682 4.0088 0.7435 1.0955 1.8385 2.7001 2.4334 3.5656 0.5949 0.8656 1.6767 2.5653 2.4038 3.7771 0.727 1.2118 2.4522 3.9029 3.8337 5.9803 1.3811 2.0774 3.0292 4.5561 3.6624 5.5082 0.633 0.9522 2.3192 3.7849 3.7472 6.2951 2.5596 4.5002 4.5617 7.8966 9.1304 15.49 1.2795 2.1269 3.5951 6.2041 5.1456 9.0605 1.5508 2.8564 3.5085 6.3266 4.3505 7.7115 0.8423 1.3849 1.7497 2.9429 2.017 3.4623 0.2669 0.5193 1.5146 2.9272 2.7726 5.3508 4.6329 8.9252 6.8897 13.401 10.712 21.246 5.5054 11.3 6.7279 13.918 9.3334 19.987 1.2635 2.943 2.8451 6.5221 3.5149 7.9536s1.2178 2.697 1.2178 2.8121 0.2688 0.7852 0.5974 1.489c0.3289 0.7039 1.1196 2.5545 1.7573 4.1125s1.7361 4.1784 2.4409 5.823c0.7047 1.6446 1.4614 3.6709 1.6814 4.503 0.22 0.832 0.5234 1.6819 0.6742 1.8885s0.5757 1.1547 0.9443 2.1068c1.1176 2.8873 3.5825 9.4733 4.3584 11.646 0.4016 1.1253 1.3213 3.6748 2.0433 5.6656 2.9411 8.1101 3.558 9.8752 5.6637 16.21 4.6162 13.886 6.5579 19.884 6.929 21.403 0.2115 0.8656 0.4829 1.7154 0.6031 1.8885 0.1202 0.1732 0.5407 1.5187 0.9345 2.9902s1.0563 3.8794 1.4724 5.3508c0.4158 1.4715 0.916 3.242 1.1111 3.9345 0.1955 0.6924 0.5247 1.8255 0.7321 2.518 0.2074 0.6924 0.9839 3.8085 1.7255 6.9246 0.7412 3.116 2.4585 10.198 3.8161 15.738 1.3572 5.5397 2.6216 10.851 2.8101 11.803 0.1882 0.9521 0.6858 3.5016 1.1057 5.6655 0.4199 2.164 1.0582 5.4217 1.4186 7.2394s0.9201 4.6505 1.2433 6.2951c0.3236 1.6446 0.8149 4.1232 1.0922 5.5082 0.2773 1.3849 0.6342 3.3678 0.7938 4.4065 0.1593 1.0387 0.4466 2.7384 0.639 3.7771 0.192 1.0387 0.4787 2.7383 0.637 3.777 0.3047 1.9981 1.0031 6.0675 1.5448 8.999 0.5008 2.7091 1.4482 10.308 2.9981 24.05 0.4293 3.8085 0.9228 8.0577 1.0959 9.4426 0.3268 2.6086 0.576 5.5561 1.5971 18.885 0.3314 4.3278 0.7381 9.4268 0.9034 11.331 1.2782 14.711 1.287 66.849 0.012 82.308-0.1639 1.9908-0.5807 7.3023-0.9263 11.803s-0.7708 10.025-0.9452 12.275-0.4567 5.1541-0.6276 6.4525c-0.1706 1.2983-0.5241 4.4144-0.7856 6.9245-0.2616 2.5102-0.6176 5.6971-0.7916 7.082-0.1738 1.3849-0.6028 4.9259-0.9531 7.8689-0.9594 8.0632-1.1602 9.5737-1.5684 11.803-0.2059 1.1253-0.5675 3.1791-0.8033 4.564-0.2357 1.3849-0.7085 4.1469-1.0503 6.1377s-0.8335 4.8944-1.0928 6.4524c-0.86 5.17-1.3762 7.8901-3.0456 16.052-0.3541 1.7312-0.9783 4.8472-1.3868 6.9246-1.6207 8.2383-2.1932 10.705-4.4198 19.043-0.6241 2.3371-1.48 5.8072-1.9014 7.7115-0.7066 3.1937-1.1328 4.9966-2.4913 10.544-0.2757 1.1252-0.773 2.9665-1.1051 4.0918-0.8162 2.7655-2.1299 7.3295-2.7182 9.4426-0.8738 3.1391-1.7771 6.0677-3.5923 11.646-0.9858 3.0295-2.9499 9.12-4.3644 13.534s-2.7229 8.4512-2.9074 8.9705c-0.1841 0.5194-0.9005 2.5023-1.5914 4.4066-0.6912 1.9042-1.5895 4.3829-1.9964 5.5082-0.407 1.1252-1.0151 2.7541-1.3516 3.6196-0.3362 0.8656-1.7066 4.4774-3.0452 8.0263-1.3387 3.5488-2.5464 6.5941-2.6843 6.7672-0.1375 0.1731-0.5521 1.2354-0.9213 2.3606-0.6553 1.9991-2.5249 6.6151-3.3143 8.1836-0.2178 0.4328-0.6865 1.6368-1.0419 2.6754-0.3553 1.0387-1.8073 4.4381-3.2268 7.5541-1.4199 3.1161-2.9046 6.5155-3.2999 7.5541-1.9389 5.0941-2.9813 7.3904-7.8572 17.312-2.8926 5.8859-5.3911 10.985-5.5516 11.331-0.1606 0.3462-1.2745 2.4708-2.4749 4.7213-1.2008 2.2505-3.113 5.9331-4.2492 8.1836-1.1366 2.2505-3.1255 5.8623-4.4198 8.0262-1.2943 2.164-3.2486 5.7049-4.3433 7.8689-2.2867 4.521-7.2985 13.39-8.0929 14.321-0.2956 0.3462-1.2141 1.8334-2.0412 3.3049-2.6421 4.6997-5.5334 9.5094-7.6633 12.748-1.1385 1.7312-2.2505 3.4664-2.4712 3.8558-1.0182 1.7982-1.2864 2.2423-2.4217 4.0131-1.6125 2.5146-5.2394 7.9428-7.2312 10.821-0.8838 1.2779-1.9612 2.8536-2.394 3.502-1.6461 2.4658-4.2306 6.0946-5.3791 7.5522-0.6934 0.8804-2.7957 3.8142-5.1651 7.2094-1.9518 2.7963-3.8035 5.3386-4.4925 6.1677-1.0988 1.3222-3.5338 4.6048-3.5338 4.7638 0 0.2656-2.7607 4.0096-5.6655 7.6831-1.4715 1.8611-3.1004 3.9222-3.6197 4.58-2.9061 3.6826-4.2627 5.3776-4.6817 5.8503-0.2584 0.2915-0.7236 0.9289-1.0342 1.4164-0.3107 0.4876-0.6491 0.9575-0.7526 1.0441-0.2893 0.2423-3.1857 3.5847-4.1321 4.7685-2.2395 2.8007-3.4384 4.2825-4.1636 5.1462-3.6974 4.4034-5.1682 6.184-6.7181 8.1326-0.9861 1.2398-3.3591 3.954-5.2731 6.0313-1.9137 2.0774-3.7056 4.1343-3.9813 4.5709-0.276 0.4366-3.9665 4.3317-8.2015 8.6557-4.2351 4.3241-8.4081 8.641-9.2733 9.5931-1.9801 2.1794-19.982 19.996-25.441 25.179-8.3054 7.8862-9.5018 9.006-11.341 10.616-1.033 0.9043-2.7283 2.4019-3.767 3.3273-1.976 1.7614-5.0376 4.3266-8.341 6.9888-1.0739 0.8656-2.2561 1.9027-2.6266 2.3049-0.3708 0.402-1.6543 1.5351-2.8523 2.5181-1.1982 0.9826-2.4053 1.9993-2.6829 2.259-0.2773 0.2596-0.9009 0.7296-1.3856 1.044-0.485 0.3144-1.1199 0.7809-1.4113 1.0368-0.8895 0.7806-8.6932 7.0867-11.252 9.0929-1.3248 1.0387-2.783 2.2203-3.2401 2.6257-1.1614 1.0305-5.3237 4.1415-5.5406 4.1415-0.099 0-1.2744 0.8474-2.6134 1.8832-4.1255 3.1916-7.3731 5.6297-9.6739 7.2633-1.2118 0.8605-2.4866 1.7761-2.8328 2.0352-2.5196 1.8835-3.66 2.6675-3.8806 2.6675-0.1404 0-0.8121 0.4662-1.4923 1.0362-0.6805 0.57-2.1576 1.7009-3.2829 2.5133-1.1252 0.8124-2.6263 1.904-3.3357 2.4261-0.7095 0.5219-1.3673 0.949-1.4617 0.949-0.2323 0-4.9398 3.1787-7.5164 5.0754-1.1466 0.8439-2.1875 1.5345-2.3134 1.5345-0.3576 0-13.323 8.3435-13.701 8.8165-0.288 0.3611-6.9797 4.4623-8.3001 5.0871-0.7151 0.3383-2.2914 1.2395-3.5032 2.0025-2.2845 1.4387-5.6609 3.4264-8.4559 4.9781-0.8888 0.4932-1.8287 1.0755-2.0884 1.2936-0.2596 0.2182-1.4636 0.9346-2.6754 1.5924-1.2118 0.6575-3.6171 2.0446-5.3454 3.0827-3.2864 1.9738-6.9917 3.947-13.855 7.3781-2.2505 1.1253-4.3042 2.2298-4.5639 2.4545-0.4293 0.3714-13.7 7.0678-17.469 8.815-0.8655 0.4013-2.0695 1.0167-2.6754 1.3679-0.6059 0.351-2.518 1.2685-4.2492 2.0384-1.7311 0.7702-5.2013 2.3144-7.7114 3.4317-2.5102 1.1171-4.9181 2.1388-5.3508 2.27-0.4328 0.1313-2.5222 1.1536-4.643 2.2719-2.1208 1.1184-4.5287 2.2886-5.3508 2.6012-0.8221 0.3122-3.761 1.5124-6.5308 2.6669-2.7699 1.1545-5.9568 2.3641-7.082 2.688-2.2713 0.6537-5.9193 1.9697-7.4443 2.6851-0.5454 0.2559-1.1425 0.4652-1.327 0.4652-0.1844 0-0.8004 0.2056-1.3688 0.4568-0.5685 0.2514-2.9823 1.1809-5.3644 2.066-2.3817 0.8851-4.7188 1.8117-5.1934 2.0594-0.4744 0.2474-1.0469 0.4508-1.2719 0.452-0.2248 0-0.8621 0.2367-1.4164 0.5241-0.554 0.287-1.4322 0.6292-1.9515 0.7601-0.5194 0.131-1.9005 0.6043-3.0689 1.0516-1.1686 0.4476-3.0808 1.1791-4.2491 1.6254-1.1687 0.4466-3.1161 1.1419-4.3279 1.5448-1.2118 0.4032-3.4072 1.1574-4.8787 1.6761-2.5973 0.915-5.6687 1.8303-10.859 3.2353-1.3849 0.3749-4.3594 1.311-6.6098 2.0799-7.5394 2.5766-10.58 3.4601-19.357 5.6234-2.5102 0.6188-4.9889 1.2496-5.5082 1.4023-0.5194 0.1526-1.8649 0.5048-2.9902 0.7828-1.1252 0.2779-2.7541 0.7683-3.6197 1.0899-0.8655 0.3217-2.5652 0.8209-3.777 1.1096-1.2118 0.2883-2.9115 0.7179-3.7771 0.9543-1.6083 0.4394-5.6791 1.4186-8.4983 2.0446-0.8656 0.192-3.3443 0.6815-5.5082 1.0878-7.3347 1.3768-9.2831 1.7671-10.23 2.0484-0.5194 0.1546-1.5108 0.3721-2.2033 0.4838-0.6925 0.1114-1.6839 0.3289-2.2033 0.4829-0.5193 0.1539-2.1482 0.5036-3.6196 0.7768-1.4715 0.2732-4.1627 0.7771-5.9804 1.1195-3.9693 0.7479-6.065 1.0979-10.23 1.7085-1.7311 0.2537-4.918 0.7517-7.0819 1.1067-2.164 0.3547-5.1384 0.8423-6.6099 1.0837-1.4715 0.2411-3.5252 0.5999-4.5639 0.797-2.9647 0.5627-6.9296 1.0588-23.764 2.9741-3.895 0.4431-8.1442 0.9464-9.4426 1.1186-3.6023 0.4778-9.8511 0.8967-20.931 1.4035-6.5371 0.2987-10.404 0.6028-11.016 0.8656-0.7677 0.3289-70.027 0.4202-370.07 0.4866l-369.13 0.082v-704.74zm1566.9 372.11 0.079-332.62 550.35 0.036c398.43 0.026 551.35 0.1315 553.97 0.3828 13.014 1.2479 27.78 3.1139 29.272 3.699 0.2597 0.1019 2.5967 0.525 5.1935 0.9403 2.5967 0.4153 5.3586 0.9067 6.1377 1.0921 0.779 0.1853 1.9829 0.4546 2.6754 0.5985 6.7392 1.4001 10.608 2.2948 13.613 3.1479 1.2549 0.3563 3.2583 0.9204 4.4515 1.2535 1.1933 0.333 3.6364 1.0443 5.4296 1.5806 1.7928 0.5363 3.8264 1.1317 4.5189 1.323 0.6924 0.1914 2.1828 0.684 3.3115 1.0948 1.129 0.4107 2.2621 0.7516 2.518 0.7575 0.2563 0.01 1.0321 0.2843 1.7246 0.6188 0.6924 0.3345 1.3902 0.613 1.5511 0.6188 0.2842 0.01 1.4762 0.4267 9.6226 3.3605 6.3345 2.2812 8.8786 3.2764 10.387 4.0625 0.7791 0.4061 2.2663 1.058 3.305 1.4487 1.0386 0.3908 2.0301 0.8041 2.2032 0.9186s1.5895 0.7302 3.1476 1.3682c2.8693 1.175 6.8163 3.0712 10.544 5.0652 1.1253 0.6019 3.3726 1.6772 4.9939 2.3895 1.6213 0.7124 4.4179 2.1297 6.2145 3.1496 1.7963 1.02 3.3915 1.8545 3.5445 1.8545 0.1529 0 0.4589 0.2176 0.6795 0.4836 0.221 0.266 1.3069 1.0096 2.4136 1.6525 1.1066 0.6428 2.4887 1.4521 3.071 1.7983 0.5826 0.3462 1.7447 1.0266 2.5826 1.5119 0.8378 0.4853 1.7358 1.0101 1.9955 1.1662s1.2512 0.7345 2.2033 1.2854 2.1315 1.3363 2.6209 1.7453c0.4892 0.409 1.0132 0.7437 1.1646 0.7437 0.1511 0 0.8971 0.42 1.6575 0.9333 0.7608 0.5133 1.7239 1.079 2.1407 1.257 0.4164 0.178 1.7488 1.0434 2.9606 1.9231s2.7119 1.9304 3.3332 2.3349c0.6216 0.4045 1.3298 0.9267 1.5738 1.1604 0.2442 0.2338 1.4352 1.0566 2.6471 1.8286 1.2118 0.7719 3.0814 2.045 4.1547 2.829 1.073 0.784 2.6817 1.9212 3.5747 2.5271 0.8929 0.6059 1.8561 1.3624 2.1403 1.681 0.2845 0.3187 1.3723 1.1948 2.4173 1.947 1.045 0.7521 2.1646 1.6599 2.4881 2.0173 0.3233 0.3574 0.7199 0.6498 0.881 0.6498 0.1612 0 0.7413 0.4138 1.289 0.9195 1.9993 1.846 6.1701 5.3416 7.8874 6.6102 0.9688 0.7157 3.7292 3.2448 6.1339 5.6202 2.405 2.3754 5.2029 5.091 6.2177 6.0347 3.5749 3.3238 11.632 11.314 14.121 14.003 6.116 6.6088 7.1314 7.7128 9.2808 10.091 1.2518 1.3849 2.6225 2.9429 3.0459 3.4623 0.4236 0.5193 1.4737 1.7842 2.3333 2.8108 0.8599 1.0266 2.0207 2.4864 2.5797 3.244 0.5587 0.7576 1.5952 2.113 2.3033 3.0121 0.7079 0.8991 1.474 1.9888 1.7022 2.4216 0.3422 0.649 4.3676 5.8572 5.5048 7.122 0.1753 0.1951 0.8854 1.1681 1.5778 2.1622 0.6925 0.9941 1.7416 2.4583 2.3314 3.2537 0.5899 0.7955 1.5653 2.3011 2.1674 3.346 1.0869 1.8851 3.7025 5.9898 4.2133 6.6117 1.2112 1.4745 3.406 4.7391 3.406 5.0659 0 0.2237 0.1838 0.5938 0.4088 0.8226 0.2248 0.2287 0.8908 1.2657 1.4797 2.3044s1.2669 2.0876 1.5061 2.3308c0.2392 0.2433 0.5722 0.739 0.7397 1.1017 0.1674 0.3626 0.648 1.2259 1.0679 1.9183 0.4196 0.6925 0.9169 1.6103 1.1051 2.0395 0.1879 0.4293 0.4693 0.8593 0.6251 0.9555 0.1555 0.096 1.5606 2.8318 3.1221 6.079s3.1853 6.3583 3.6083 6.9134c0.8108 1.0639 3.7122 7.251 5.2706 11.239 0.5074 1.2983 1.2898 3.1396 1.7393 4.0918 0.4492 0.9521 1.0595 2.2977 1.356 2.9901 0.2965 0.6925 0.8334 1.8964 1.1932 2.6754 2.2577 4.8896 4.3206 10.211 6.5283 16.839 0.8036 2.4132 2.6402 7.3836 2.9335 7.939 0.2628 0.4982 0.7699 2.1518 2.9219 9.5298 1.6685 5.7204 2.4 8.4414 3.0043 11.174 0.2679 1.2118 0.6865 3.0531 0.9301 4.0918s0.5766 2.5259 0.7397 3.3049c0.163 0.7791 0.5961 2.6204 0.9622 4.0918 0.3664 1.4715 0.926 4.3043 1.2442 6.2951s0.9468 5.0361 1.3969 6.7672c1.0487 4.0334 1.3175 5.684 2.0509 12.59 0.3308 3.1161 0.6852 6.303 0.7878 7.082 0.9421 7.1632 1.5197 13.115 1.786 18.413 0.1743 3.4623 0.4501 6.541 0.6128 6.8416 0.3708 0.6847 0.3997 27.837 0.028 28.066-0.1463 0.09-0.3642 2.9668-0.4841 6.3923s-0.3478 6.653-0.5061 7.1723c-0.1583 0.5194-0.5058 3.1397-0.7718 5.823-1.5158 15.289-2.2712 21.394-2.9983 24.236-0.712 2.7831-1.3094 5.5583-1.8967 8.8131-0.328 1.8178-0.9009 4.5089-1.2729 5.9804-0.3717 1.4715-1.0242 4.2334-1.4494 6.1377-0.4253 1.9042-1.039 4.5954-1.3639 5.9803-0.3248 1.3849-0.7991 3.4387-1.0544 4.5639-0.2553 1.1253-0.7711 3.0374-1.1463 4.2492-0.3755 1.2118-0.9701 3.1948-1.3217 4.4066-0.5713 1.9685-1.4365 4.4922-4.6952 13.692-3.4975 9.8754-7.1449 19.012-9.7504 24.425-0.5083 1.0563-0.9245 2.0116-0.9245 2.1227 0 1.0019-11.197 23.058-14.326 28.219-1.102 1.8177-2.2436 3.7298-2.5369 4.2492-0.2934 0.5193-0.995 1.6524-1.5596 2.518-0.5644 0.8656-1.2905 2.0695-1.6135 2.6754-0.3226 0.6059-1.7893 2.8416-3.2589 4.9681s-2.8901 4.2511-3.1564 4.7213c-0.2663 0.4703-1.3282 2.1296-2.36 3.6877-1.0314 1.558-1.9329 2.9744-2.0031 3.1475-0.1564 0.3862-2.2423 3.1557-5.2148 6.9246-1.2292 1.558-2.5017 3.2539-2.8281 3.7689-0.6692 1.0553-0.7441 1.1557-1.9996 2.6836-0.498 0.6059-1.0365 1.3436-1.1964 1.6392-0.1602 0.2959-1.1583 1.4998-2.2178 2.6754-2.642 2.9316-3.658 4.1702-4.3757 5.3341-0.7239 1.175-6.9916 8.0137-13.802 15.06-11.736 12.142-20.911 20.828-26.281 24.878-0.9087 0.6856-2.766 2.2027-4.1267 3.371-1.361 1.1684-2.5621 2.1246-2.6691 2.1246s-1.4259 1.0683-2.931 2.3739c-1.5052 1.3056-3.4982 2.8992-4.4289 3.541s-2.3471 1.627-3.1475 2.1894c-0.8005 0.5622-2.3761 1.6493-3.5014 2.4158-1.1252 0.7664-3.179 2.1903-4.5639 3.1642-1.3849 0.9738-3.0846 2.152-3.7771 2.6184-0.6924 0.4662-2.1088 1.4658-3.1475 2.2216-1.0387 0.7554-2.8643 1.8894-4.0569 2.5199-3.5466 1.8747-3.805 2.0207-3.9693 2.2426-0.087 0.1168-1.6446 1.0377-3.4623 2.0468-3.1762 1.763-7.6199 4.2961-10.028 5.7163-0.6304 0.3717-2.4919 1.3503-4.1365 2.1746-1.6445 0.8244-3.6983 1.9455-4.5639 2.4916-2.1233 1.3393-19.538 9.6085-20.236 9.6085-0.1181 0-0.9248 0.3393-1.7929 0.7539-2.6464 1.264-10.679 4.5123-13.539 5.4748-1.0387 0.3497-3.7298 1.2965-5.9803 2.1041-4.6873 1.6818-5.7094 2.0242-8.9705 3.0069-1.2984 0.3909-2.8564 0.8829-3.4623 1.0931-1.4388 0.4989-5.0181 1.5779-7.3967 2.2297-1.0387 0.2846-2.4551 0.7079-3.1476 0.9408-1.9637 0.6607-14.082 3.5945-14.854 3.5955-0.3793 0-0.7671 0.1265-0.8618 0.2795-0.095 0.1533-1.1297 0.4409-2.3006 0.6395-3.8223 0.6484-8.0744 1.4948-11.728 2.3343-1.1253 0.2584-3.0374 0.5587-4.2492 0.6669-1.2118 0.108-2.699 0.3249-3.3049 0.4813-0.9909 0.2562-4.6285 0.8155-10.387 1.5977-2.7891 0.3789-9.036 0.9219-14.164 1.2313-2.337 0.141-251.59 0.2719-553.89 0.2905l-549.64 0.034 0.079-332.62zm-0.079-744.31v-332.54l550.27 0.03c312.86 0.017 551.49 0.1487 553.1 0.3057 1.5581 0.1518 4.4617 0.4915 6.4525 0.7549 1.9908 0.2633 6.3816 0.7595 9.7574 1.1028 3.3757 0.3433 6.4918 0.7052 6.9246 0.8044 0.4328 0.099 2.4157 0.4655 4.4065 0.8142 1.9908 0.3488 5.1777 0.9093 7.082 1.2456s5.2101 0.8936 7.3464 1.2384c2.1362 0.3448 4.0115 0.7058 4.1676 0.8022 0.1561 0.096 1.666 0.4594 3.3553 0.8067 5.0773 1.0439 5.5475 1.1566 7.4946 1.7958 1.9914 0.6538 3.3512 1.0569 11.315 3.3537 2.7698 0.7989 6.0275 1.7394 7.2393 2.09 2.1677 0.6272 4.1264 1.3041 7.2453 2.504 0.8691 0.3343 1.6742 0.6078 1.7894 0.6078s0.6084 0.1636 1.0957 0.3637c1.2631 0.5184 3.0339 1.1739 8.7549 3.2411 2.7698 1.0008 5.8859 2.2147 6.9246 2.6975 1.0386 0.4829 3.0924 1.3812 4.5639 1.9963 1.4715 0.615 3.563 1.549 4.6477 2.0754 1.0846 0.5264 2.1113 0.9571 2.2816 0.9571s0.9827 0.3384 1.8048 0.752c0.8225 0.4136 4.0449 1.9847 7.161 3.4914 5.1629 2.4962 16.145 8.4643 16.525 8.9801 0.087 0.1176 0.5372 0.4127 1.0018 0.6558 1.7022 0.8909 5.1403 2.9117 5.2932 3.1112 0.087 0.1128 1.0073 0.6822 2.0459 1.2653 1.0387 0.583 1.9622 1.1668 2.0522 1.2972s0.5153 0.395 0.9443 0.5878c0.4293 0.1929 1.2977 0.662 1.9301 1.0426 0.632 0.3807 2.1192 1.2444 3.3049 1.9195 1.8441 1.0502 3.8035 2.3815 6.562 4.4589 0.3462 0.2607 2.5416 1.7434 4.8787 3.2949 6.2334 4.138 6.4697 4.3052 10.072 7.1262 1.8177 1.4235 3.9115 3.0557 4.653 3.6272 0.7416 0.5715 2.2791 1.889 3.4173 2.9277 1.1378 1.0386 2.3112 2.0301 2.6074 2.2032 0.4649 0.2718 5.9693 4.7586 7.234 5.8967 3.4289 3.086 19.724 19.054 21.124 20.7 0.8099 0.9521 3.5479 3.8254 6.0842 6.385 2.5363 2.5597 4.6115 4.789 4.6115 4.9541s0.7192 1.116 1.598 2.1133c0.8788 0.9972 1.9763 2.2739 2.4393 2.837 0.4627 0.5631 1.3371 1.5623 1.943 2.2205 1.1092 1.205 1.7019 1.9598 3.1475 4.0097 0.4328 0.6137 1.4737 1.9945 2.3128 3.0686 0.8395 1.074 1.6745 2.236 1.8558 2.5822 0.1816 0.3463 0.5216 0.7428 0.7561 0.8813 0.2345 0.1384 0.4261 0.4059 0.4261 0.5944s0.8143 1.3465 1.8099 2.5733c2.5199 3.1057 2.3987 2.9476 4.1384 5.3937 0.8618 1.2118 1.7736 2.4367 2.0263 2.722 0.2528 0.2854 0.8552 1.206 1.339 2.0459 0.4835 0.84 1.808 2.9277 2.9433 4.6395 1.1356 1.7117 2.2058 3.3406 2.3786 3.6196 0.1728 0.2791 0.8287 1.2156 1.4579 2.0812 0.6292 0.8655 1.3761 1.9987 1.66 2.518 1.6585 3.0336 2.5074 4.4664 2.9238 4.9357 0.2584 0.291 0.7044 0.9549 0.9915 1.4753 0.4711 0.8552 2.4645 4.2109 3.2026 5.3923 0.1624 0.2597 1.5813 3.0903 3.1532 6.2904 1.5719 3.2 3.0386 6.0328 3.2599 6.2951 0.588 0.6973 4.9124 9.8528 4.9124 10.4 0 0.2381 3.2281 7.5034 5.5484 12.487 1.21 2.5994 2.3528 5.53 3.4636 8.8816 0.4252 1.2842 0.8687 2.4881 0.9849 2.6754 0.2571 0.4137 1.4412 3.6383 2.4374 6.6358 0.4026 1.2118 1.1615 3.4072 1.6862 4.8786 0.8624 2.4184 2.5111 7.6642 3.71 11.803 0.7957 2.7471 1.9955 7.6829 3.3666 13.849 0.4233 1.9043 1.1372 4.9495 1.5866 6.7672 0.4492 1.8177 1.0246 4.5797 1.2786 6.1377 0.254 1.5581 0.6912 3.7535 0.971 4.8787 0.2801 1.1253 0.7208 3.2498 0.9792 4.7213 0.2587 1.4715 0.6018 3.1712 0.7626 3.7771 0.1606 0.6059 0.4479 2.8721 0.6384 5.036 0.1907 2.164 0.4705 4.9968 0.6225 6.2951 0.1518 1.2984 0.5679 4.8394 0.9248 7.8689 0.8863 7.5252 1.1828 11.207 1.2222 15.168 0.019 1.8655 0.1737 3.4517 0.3481 3.5595 0.2021 0.1249 0.3148 5.1381 0.3148 14.007s-0.1127 13.882-0.3148 14.007c-0.1747 0.1079-0.3289 1.6919-0.3462 3.5595-0.019 1.8508-0.1467 4.7106-0.2877 6.3552-0.5678 6.6344-1.2804 13.124-1.5552 14.164-0.1599 0.6059-0.5773 4.0053-0.9276 7.5541-0.6232 6.3196-1.3695 11.018-2.3994 15.108-0.2832 1.1253-0.7768 3.5332-1.0966 5.3509-0.5952 3.3817-0.7916 4.3021-1.6808 7.8688-0.2804 1.1253-0.8759 3.6748-1.3232 5.6656-1.4299 6.3635-2.3575 10.191-2.8227 11.646-0.249 0.779-1.2244 3.9659-2.1677 7.082-0.943 3.116-2.2993 7.2944-3.0141 9.2852s-1.5857 4.4695-1.9357 5.5082c-0.3497 1.0387-0.8263 2.3134-1.0592 2.8328-0.2326 0.5193-1.0862 2.7856-1.897 5.0361-0.8108 2.2504-2.0418 5.2957-2.7355 6.7672-1.4089 2.9881-1.7796 3.8007-3.8419 8.4213-0.7922 1.7754-1.4406 3.3491-1.4406 3.4972 0 0.5082-4.5035 9.9568-5.0459 10.586-0.2984 0.3462-1.7613 3.1466-3.2507 6.2229-1.4898 3.0764-3.7381 7.3005-4.9961 9.3868-6.0188 9.9805-9.7681 15.924-11.476 18.193-0.5728 0.7607-1.0412 1.5149-1.0412 1.6761s-0.6729 1.2061-1.4951 2.322c-0.8224 1.1159-2.1324 2.9559-2.9114 4.089-0.779 1.133-2.762 3.7859-4.4066 5.8952s-3.4151 4.4716-3.9344 5.2495c-0.9197 1.3774-4.2618 5.654-6.1509 7.8705-0.5162 0.6059-2.4913 2.943-4.389 5.1934-4.8078 5.7019-7.2421 8.3845-12.719 14.018-2.6149 2.6894-5.4779 5.6638-6.3621 6.6098-0.8845 0.946-3.2199 3.2072-5.19 5.0249-1.9703 1.8177-4.6461 4.299-5.9463 5.5139-4.1674 3.894-6.1346 5.6266-8.0344 7.0763-1.0208 0.779-3.0985 2.4787-4.6171 3.777-1.5187 1.2984-3.7636 3.1397-4.9883 4.0918-1.225 0.9522-2.472 1.9436-2.7717 2.2033-0.2993 0.2597-1.1426 0.8971-1.8737 1.4164-0.7315 0.5193-2.1432 1.5407-3.1372 2.2696-1.7746 1.3015-10.341 7.1848-11.36 7.8025-0.2855 0.1731-1.3884 0.9772-2.4503 1.7868-1.0623 0.8096-2.6912 1.9137-3.6197 2.4535-2.6801 1.5578-2.8149 1.6402-5.4657 3.3421-4.1947 2.6932-6.6511 4.1542-8.8865 5.2859-1.1715 0.5929-2.6965 1.4682-3.3889 1.945-0.6925 0.4768-3.4545 1.9918-6.1377 3.3667-2.6833 1.3749-5.0418 2.633-5.241 2.7956-0.5206 0.4249-8.7052 4.432-11.126 5.4474-1.1253 0.4719-2.7683 1.1998-3.6512 1.6175s-1.6978 0.7595-1.8111 0.7595c-0.113 0-1.5152 0.6137-3.1161 1.3638-4.195 1.9659-7.854 3.4945-11.094 4.6348-1.558 0.5484-3.8951 1.3947-5.1934 1.8805-1.2984 0.4859-2.7856 0.9849-3.3049 1.1089-0.5194 0.124-1.2984 0.4053-1.7312 0.6252-1.5303 0.7775-12.85 4.4329-18.098 5.8448-0.5194 0.1396-1.6525 0.4599-2.5181 0.7116-3.7625 1.0942-6.9312 1.9518-8.8131 2.3853-0.6925 0.1595-2.4629 0.5857-3.9344 0.9472-5.585 1.372-10.682 2.4113-17.941 3.6579-2.5102 0.4311-6.1928 1.0695-8.1836 1.4185-11.388 1.9968-14.382 2.3551-23.306 2.7897-4.6772 0.2277-177.21 0.3302-555.93 0.3302h-549.15v-332.54z" fill="#505050"/>
<path d="m5202.6 3203.7v-0.7869h633.91c556.5 0 633.91 0.056 633.91 0.4611 0 0.2534-0.2739 0.6075-0.6088 0.7869-0.4192 0.2241-197.96 0.3258-633.91 0.3258h-633.31zm1566.8 0v-0.7869h1406.6v1.5738h-1406.6zm-1566.8-282.02v-0.7869h1394.7v1.5738h-1394.7zm1566.8 0v-0.7869h657.92c594.96 0 657.99 0.047 658.62 0.49 0.3849 0.2695 0.6997 0.6236 0.6997 0.7869 0 0.1859-246.15 0.2969-658.62 0.2969h-658.62zm-1566.8-282.02c0-0.4195 77.692-0.4721 697.34-0.4721s697.34 0.053 697.34 0.4721c0 0.4196-77.692 0.4721-697.34 0.4721s-697.34-0.053-697.34-0.4721zm1566.8 0c0-0.4195 73.377-0.4721 658.5-0.4721 585.3 0 658.46 0.052 658.11 0.4721-0.3481 0.4194-73.9 0.4721-658.5 0.4721-584.78 0-658.11-0.053-658.11-0.4721zm-1566.8-282.02c0-0.4195 70.623-0.4721 633.72-0.4721 562.92 0 633.76 0.053 634.11 0.4721 0.3481 0.4197-70.1 0.4722-633.72 0.4722-563.44 0-634.11-0.053-634.11-0.4722zm1566.8 0c0-0.4195 78.356-0.4721 703.32-0.4721 624.96 0 703.32 0.053 703.32 0.4721 0 0.4196-78.356 0.4722-703.32 0.4722-624.96 0-703.32-0.053-703.32-0.4722z" fill="#4d4d4d"/>
</g>
</svg>
