<svg width="7165.4" height="3392.1" viewBox="0 0 7165.414 3392.141" xmlns="http://www.w3.org/2000/svg"><g stroke-width=".315"><path d="M.212 3391.394c-.2-.525-.275-763.745-.168-1696.017L.236.3 862.355.116c567.191-.12 868.205.077 879.897.577 9.787.418 27.166 1.097 38.618 1.51 11.453.411 22.017 1.08 23.474 1.483 1.458.404 13.384 1.417 26.503 2.251 33.31 2.118 52.174 3.663 55.278 4.53 1.457.406 7.761 1.264 14.009 1.906 16.044 1.648 30.281 3.321 35.589 4.183 2.498.405 8.803 1.436 14.009 2.291s13.554 2.214 18.552 3.02c30.363 4.897 75.7 13.644 96.17 18.554 4.58 1.099 10.544 2.481 13.25 3.073 4.392.959 7.368 1.763 15.648 4.227 1.318.392 4.726 1.193 7.573 1.78 2.847.588 8.073 1.795 11.613 2.684 3.54.888 9.68 2.372 13.643 3.296 3.964.925 7.655 1.958 8.201 2.296.548.338 2.757 1.063 4.91 1.61 2.152.546 6.47 1.73 9.593 2.629 3.124.9 8.12 2.255 11.101 3.014 2.982.759 7.434 2.094 9.893 2.967 2.459.873 6.919 2.269 9.912 3.102 8.039 2.239 15 4.252 20.965 6.063 2.915.886 8.027 2.42 11.358 3.409 6.309 1.873 10.021 3.09 18.931 6.205 2.915 1.02 7.856 2.714 10.98 3.767 3.124 1.053 6.872 2.369 8.33 2.924s6.91 2.383 12.115 4.06c5.207 1.677 11.851 3.93 14.766 5.006a2242.35 2242.35 0 009.087 3.333c2.083.756 8.387 3.168 14.01 5.36 5.622 2.193 12.096 4.673 14.387 5.511 2.29.839 9.276 3.717 15.523 6.396 13.239 5.679 15.255 6.522 26.882 11.237a907.91 907.91 0 0117.038 7.152c4.581 1.99 11.397 4.886 15.145 6.433 3.748 1.548 8.689 3.675 10.98 4.729 2.29 1.053 6.38 2.93 9.087 4.173 23.858 10.95 32.776 15.238 38.617 18.566 3.124 1.78 16.584 8.688 29.912 15.35 13.327 6.663 26.276 13.348 28.776 14.856 10.914 6.583 22.28 13.151 26.203 15.143 7.896 4.006 12.134 6.391 17.585 9.893 2.987 1.92 7.306 4.438 9.596 5.596 2.291 1.158 8.675 4.935 14.185 8.394 22.07 13.85 37.85 23.701 40.928 25.547 1.783 1.07 4.68 2.994 6.436 4.278 1.757 1.283 4.9 3.318 6.982 4.523 5.48 3.17 33.49 22.114 36.926 24.977 1.17.975 5.087 3.713 18.365 12.845 1.817 1.249 6.251 4.486 9.854 7.193a3802.99 3802.99 0 0016.136 12.026c5.273 3.907 10.779 8.097 12.237 9.312 9.105 7.588 22.427 17.923 28.13 21.825 2.393 1.636 13.625 10.857 20.711 17.001 1.25 1.084 3.805 3.168 5.68 4.633a211.778 211.778 0 016.814 5.613c1.875 1.624 6.898 5.698 11.163 9.055 4.265 3.357 12.273 10.241 17.795 15.298 5.522 5.056 12.216 11.104 14.876 13.44 2.66 2.336 7.09 6.34 9.844 8.899a597.985 597.985 0 009.612 8.708c10.206 8.992 24.28 22.518 44.149 42.43 26.599 26.657 65.85 67.23 66.92 69.177.451.82 4.6 5.58 9.219 10.578 4.62 4.998 10.601 11.813 13.293 15.145s7.872 9.636 11.514 14.009c3.642 4.373 8.762 10.59 11.378 13.815 2.616 3.225 6.238 7.485 8.048 9.465 1.81 1.98 3.855 4.462 4.544 5.514s7.308 9.493 14.71 18.758c7.402 9.264 15.518 19.744 18.037 23.288 2.519 3.543 7.366 9.973 10.773 14.288 3.407 4.314 7.557 9.798 9.223 12.186a1088.088 1088.088 0 0013.805 19.3c11.577 15.784 22.476 31.85 39.121 57.667 4.121 6.391 8.744 13.495 10.273 15.785 1.528 2.291 5.484 8.865 8.788 14.609 12.697 22.07 15.389 26.685 15.994 27.419 1.392 1.683 11.827 19.69 18.212 31.424 3.74 6.872 8.54 15.391 10.666 18.931 2.128 3.54 4.388 7.459 5.022 8.708.634 1.25 3.739 7.213 6.899 13.252 8.333 15.926 15.738 30.643 25.145 49.978 13.955 28.68 17.156 35.512 22.527 48.085 2.847 6.664 6.649 15.24 8.448 19.06 1.8 3.819 3.272 7.35 3.272 7.848 0 .497.64 2.143 1.423 3.657.783 1.514 2.611 5.65 4.063 9.19 1.452 3.54 4.208 10.185 6.125 14.766 1.916 4.581 3.713 9.352 3.992 10.601.28 1.25.783 2.626 1.12 3.059.337.433 1.667 3.67 2.954 7.194 2.453 6.716 3.545 9.61 7.843 20.794 1.441 3.748 3.031 8.008 3.534 9.465s2.205 6.229 3.782 10.602c7.243 20.076 10.128 28.311 13 37.104 1.701 5.206 5.73 17.473 8.951 27.26s6.447 19.84 7.168 22.339c.72 2.499 1.777 5.736 2.35 7.194.97 2.472 2.606 8.18 4.125 14.387.842 3.436 1.689 6.438 4.168 14.766 1.116 3.749 2.66 9.37 3.43 12.495.771 3.123 2.124 8.575 3.007 12.115a791.286 791.286 0 013.397 14.388c1.641 7.287 3.253 13.915 6.078 24.989 4.37 17.134 6.268 25.547 9.137 40.511a3741.4 3741.4 0 003.385 17.417 9212.314 9212.314 0 005.278 26.502c1.254 6.199 5.325 30.376 6.823 40.511.4 2.707 1.077 6.115 1.507 7.572 1.023 3.48 3.77 25.122 7.884 62.094.997 8.954 2.025 17.133 2.286 18.174.457 1.822 1.014 8.397 4.201 49.598a6821.62 6821.62 0 002.187 27.638c3.07 37.032 3.07 162.485 0 198.016-.396 4.582-1.382 17.02-2.19 27.638-3.163 41.567-3.744 48.176-4.464 50.734-.41 1.457-1.453 9.806-2.317 18.552-2.405 24.354-5.403 49.1-6.915 57.102-.441 2.328-1.286 7.13-1.878 10.67-.994 5.94-2.18 12.892-5.227 30.669-.643 3.748-1.494 8.69-1.89 10.98-.71 4.093-2.356 12.475-5.316 27.07a4802.78 4802.78 0 00-3.372 16.848c-4.148 20.943-6.48 31.19-9.14 40.134-1.426 4.801-3.447 12.893-6.051 24.231-4.73 20.597-8.153 33.931-12.83 49.978-.668 2.29-1.706 5.869-2.308 7.951-3.122 10.81-5.044 16.93-11.415 36.347-10.03 30.568-13.232 40.446-14.36 44.298-1.833 6.258-11.832 33.41-19.66 53.385-.98 2.499-2.865 7.44-4.19 10.98s-2.664 6.777-2.976 7.193c-.311.417-1.161 2.632-1.888 4.922-1.253 3.944-5.397 14.365-7.681 19.31-.577 1.25-1.877 4.486-2.89 7.194-1.013 2.707-4.46 10.714-7.66 17.795-5.667 12.537-8.484 19.262-12.14 28.975-1.742 4.632-31.852 65.414-43.226 87.26-3.144 6.04-8.23 15.24-11.3 20.446-3.069 5.206-7.753 13.725-10.407 18.931-5.59 10.964-17.615 32.238-19.473 34.453-.7.833-3.777 5.945-6.838 11.359-5.442 9.623-14.6 24.818-19.734 32.743a1201.94 1201.94 0 00-6.044 9.466c-10.24 16.206-12.694 19.993-15.498 23.917-1.689 2.364-6.234 8.898-10.101 14.52-3.866 5.623-8.449 12.14-10.181 14.481-1.733 2.342-6.973 9.668-11.646 16.28-10.767 15.24-10.153 14.407-16.907 22.96-3.142 3.98-6.38 8.308-7.193 9.618-3.087 4.967-8.043 11.643-17.344 23.365-5.288 6.664-11.55 14.615-13.913 17.67-2.364 3.056-8.394 10.382-13.397 16.281-5.004 5.9-9.604 11.465-10.223 12.37-.619.902-4.532 5.718-8.697 10.699-4.165 4.982-9.276 11.202-11.358 13.822-2.083 2.621-7.193 8.305-11.355 12.632-4.163 4.326-7.875 8.441-8.25 9.145-2.261 4.235-79.512 82.94-103.17 105.11-4.942 4.63-14.165 13.278-20.495 19.218-6.331 5.94-12.561 11.439-13.845 12.22-1.285.781-2.542 1.96-2.797 2.623-.254.66-1.901 2.278-3.661 3.592-4.43 3.308-18.912 15.353-23.065 19.183-4.429 4.085-14.268 12.275-21.673 18.04-3.21 2.499-7.233 5.787-8.941 7.306s-6.398 5.267-10.423 8.33a989.025 989.025 0 00-15.144 11.816c-7.336 5.856-38.64 29.326-44.693 33.505a3980.725 3980.725 0 01-9.819 6.737c-3.894 2.664-8.153 5.731-9.467 6.816-4.032 3.328-13.064 9.675-22.796 16.02-5.106 3.328-11.07 7.405-13.252 9.06-2.182 1.655-4.224 3.01-4.536 3.012-.845 0-26.536 16.515-33.412 21.472-3.28 2.364-11.798 7.589-18.93 11.611-7.133 4.023-13.991 8.068-15.24 8.992-1.25.923-3.976 2.58-6.059 3.684-5.573 2.954-12.147 6.753-13.342 7.71-.575.46-3.43 2.134-6.346 3.718-2.915 1.583-8.538 4.822-12.494 7.196-7.835 4.702-18.381 10.331-33.696 17.986-5.414 2.707-10.014 5.18-10.223 5.499-.209.317-9.75 5.213-21.202 10.88-11.453 5.666-21.846 10.864-23.096 11.551-6.325 3.477-14.37 7.169-35.211 16.159-6.872 2.964-17.094 7.732-22.717 10.595-5.622 2.864-11.586 5.7-13.252 6.305-1.666.604-7.97 3.132-14.008 5.618-6.04 2.486-12.855 5.125-15.145 5.864-7.686 2.48-17.018 5.759-19.31 6.784-1.25.559-3.975 1.609-6.058 2.334-7.44 2.59-25.453 9.448-26.502 10.09-.778.476-2.133.98-15.145 5.628-4.164 1.488-10.298 3.78-13.63 5.093-3.332 1.314-7.591 2.823-9.465 3.356-1.875.532-5.623 1.824-8.33 2.87-7.259 2.807-11.206 4.146-16.28 5.524-2.5.678-7.61 2.07-11.359 3.094a2175.012 2175.012 0 01-9.465 2.565c-1.458.389-7.08 2.278-12.495 4.2-16.056 5.698-21.15 7.148-50.356 14.339-2.707.666-5.944 1.533-7.194 1.925-1.249.392-4.593 1.252-7.43 1.913-2.838.66-6.586 1.799-8.33 2.532-1.744.733-5.896 1.933-9.228 2.667-3.332.733-6.91 1.642-7.951 2.019-1.042.376-4.279 1.219-7.194 1.871-2.915.654-8.197 1.868-11.737 2.699-3.54.831-10.866 2.34-16.28 3.353a1070.258 1070.258 0 00-29.912 6.05c-18.753 4.093-32.94 6.772-48.085 9.08-16.954 2.582-40.667 6.462-48.154 7.878-7.802 1.475-31.43 4.34-56.724 6.876-8.538.856-16.53 1.884-17.757 2.284-1.23.4-8.385 1.096-15.902 1.547-7.518.45-14.861 1.115-16.319 1.477-1.457.361-13.195 1.042-26.083 1.513-15.124.552-23.985 1.172-24.99 1.75-2.355 1.353-1777.549 1.686-1778.054.333zm3769.408 0c-.198-.52-.272-360.966-.166-800.963l.192-800.025 1324.393.082c984.14.06 1326.654.304 1333.102.945 34.992 3.464 67.098 7.532 70.422 8.924.625.262 6.077 1.263 12.116 2.226 6.04.962 12.514 2.088 14.388 2.5s7.326 1.598 12.116 2.633c20.088 4.34 30.926 7.174 51.113 13.36 2.916.894 7.686 2.254 10.601 3.023 5.596 1.475 16.376 4.989 18.931 6.169.833.385 6.285 2.356 12.116 4.38 9.921 3.445 25.314 8.932 32.822 11.7 1.81.667 4.877 2.021 6.815 3.01 1.94.989 5.4 2.565 7.691 3.502 2.29.938 4.676 1.953 5.3 2.256.625.303 4.203 1.832 7.952 3.4 10.065 4.208 17.737 7.83 21.58 10.186 1.875 1.148 6.986 3.7 11.36 5.67 13.437 6.052 21.92 10.643 35.21 19.05 2.916 1.845 6.153 3.788 7.195 4.318 4.323 2.203 20.983 12.329 22.964 13.957 1.177.968 2.445 1.76 2.817 1.76.834 0 16.555 9.847 20.32 12.728a136.326 136.326 0 005.77 4.124c1.665 1.115 6.265 4.258 10.222 6.982s9.998 6.852 13.424 9.172c3.427 2.319 7.857 5.644 9.844 7.389 4.457 3.913 10.531 8.824 12.79 10.34.93.624 5.241 4.202 9.58 7.95 4.34 3.749 8.87 7.497 10.069 8.33 3.27 2.273 10.01 8.442 23.088 21.131 6.48 6.287 17.112 16.584 23.63 22.883 10.114 9.778 32.458 33.23 39.4 41.351 3.115 3.648 12.26 14.19 14.956 17.24 2.44 2.762 10.913 13.567 12.857 16.396l4.67 6.815c1.953 2.852 5.701 7.783 8.33 10.958 2.628 3.175 6.142 7.727 7.808 10.116a577.62 577.62 0 006.15 8.615c1.716 2.35 4.206 6.146 5.534 8.436 3.135 5.412 6.997 11.328 12.191 18.682 2.304 3.26 4.607 6.78 5.119 7.821.928 1.887 5.582 9.311 9.32 14.87 3.444 5.119 7.338 12.372 14.71 27.4 3.95 8.045 7.993 15.712 8.987 17.037 1.714 2.283 11.303 22.867 13.292 28.533.512 1.457 1.977 4.865 3.257 7.572 2.294 4.854 3.581 7.697 6.512 14.387.82 1.875 2.762 6.304 4.313 9.845 1.55 3.54 3.274 7.799 3.829 9.465 3.285 9.86 11.15 31.79 13.57 37.831 1.16 2.899 2.371 6.306 2.689 7.572.319 1.266 1.313 4.688 2.21 7.603 5.627 18.292 8.11 27.69 13.302 50.356a1387.162 1387.162 0 003.385 14.387c.86 3.54 2.203 10.355 2.983 15.145 1.296 7.949 1.948 10.954 4.598 21.202 1.584 6.122 3.947 24.768 7.15 56.414.59 5.83 1.29 11.624 1.555 12.873 2.227 10.493 4.425 93.11 2.7 101.47-.43 2.082-1.114 10.09-1.52 17.794-.715 13.532-2.536 33.566-3.476 38.24-.25 1.25-1.28 9.94-2.287 19.31-2.03 18.895-2.813 24.496-4.132 29.531-1.587 6.062-3.122 13.084-4.55 20.824-.77 4.165-2.116 10.469-2.993 14.01s-2.417 10.184-3.421 14.765a1162.047 1162.047 0 01-3.348 14.766c-.836 3.54-1.903 8.14-2.37 10.223s-1.712 6.683-2.765 10.223l-3.83 12.873c-1.713 5.767-4.491 13.834-11.732 34.075-7.685 21.482-12.913 34.827-17.738 45.275-1.402 3.036-2.549 5.904-2.549 6.375s-1.022 2.668-2.272 4.882c-1.25 2.214-2.271 4.412-2.271 4.883 0 2.558-27.446 56.811-35.202 69.588a7804.364 7804.364 0 00-11.932 19.688c-2.467 4.096-11.808 18.147-14.667 22.062-1.41 1.93-2.564 3.702-2.564 3.937 0 1.412-14.591 22.468-21.354 30.816-2.79 3.445-6.94 9.023-9.222 12.397-2.282 3.374-7.442 9.883-11.466 14.464-4.024 4.581-8.362 9.863-9.64 11.737-3.63 5.323-11.024 13.461-33.715 37.105-30.67 31.956-49.743 49.925-66.807 62.935-4.31 3.288-6.301 4.916-10.16 8.317-1.7 1.498-3.65 3.031-4.333 3.408-.683.376-3.068 2.294-5.3 4.261-5.429 4.784-14.6 11.865-18.943 14.627-1.938 1.233-7.377 4.968-12.086 8.3-4.71 3.331-9.654 6.739-10.988 7.572-1.334.833-5.707 3.85-9.717 6.704-4.01 2.855-10.597 7.048-14.64 9.317a937.996 937.996 0 00-14.167 8.142 1126.714 1126.714 0 01-15.407 8.857c-4.725 2.663-9.837 5.601-11.359 6.529-1.521.928-5.927 3.23-9.791 5.115-3.865 1.885-8.465 4.346-10.223 5.466-4.594 2.93-23.12 11.945-37.65 18.324-6.873 3.017-13.858 6.123-15.524 6.904-5.047 2.364-17.56 7.559-18.206 7.559-.332 0-2.846.98-5.587 2.176-2.74 1.197-6.686 2.714-8.768 3.37-2.083.656-6.683 2.254-10.223 3.551-3.54 1.298-7.442 2.674-8.672 3.059-1.23.385-3.956 1.368-6.058 2.186-2.102.818-6.89 2.392-10.637 3.498-3.749 1.105-8.179 2.445-9.844 2.976-7.142 2.277-13.173 4.107-17.417 5.285-2.499.695-5.91 1.747-7.58 2.34-1.67.593-6.1 1.792-9.844 2.664-3.744.872-9.533 2.26-12.865 3.084a751.453 751.453 0 01-10.292 2.466c-2.33.533-4.607 1.2-5.063 1.481s-3.832 1.005-7.503 1.606c-13.294 2.179-19.45 3.352-21.373 4.072-2.551.957-5.605 1.53-14.834 2.788-4.164.568-12.172 1.738-17.795 2.6-5.622.864-12.437 1.897-15.144 2.297-5.792.855-19.751 2.072-34.076 2.973-5.622.353-605.275.679-1332.573.724-1057.253.067-1322.42-.109-1322.708-.864zm0-1790.853c-.198-.52-.272-360.774-.166-800.578l.192-799.64L5091.61.133c859.304-.123 1325.067.07 1330.84.553 4.88.408 12.791 1.273 17.58 1.92s13.309 1.654 18.931 2.235c14.794 1.53 21.243 2.396 31.047 4.168a2422.26 2422.26 0 0034.834 6.024c5.206.862 10.317 1.883 11.358 2.269s4.279 1.107 7.194 1.603 6.153 1.181 7.194 1.524c1.041.342 3.085.852 4.543 1.133s4.695 1.164 7.194 1.963c7.223 2.307 10.964 3.45 17.038 5.202 3.123.901 8.916 2.6 12.873 3.775 3.956 1.175 8.045 2.316 9.087 2.536 3.22.68 11.435 3.308 18.173 5.811 3.54 1.316 7.8 2.85 9.466 3.411 1.666.56 4.903 1.757 7.193 2.66 5.271 2.075 17.173 6.394 23.096 8.38 2.499.838 6.588 2.514 9.087 3.725 2.499 1.211 7.44 3.392 10.98 4.848 3.54 1.455 8.572 3.682 11.181 4.948 2.61 1.267 4.99 2.303 5.29 2.303 1.9 0 42.412 20.432 53.195 26.83 5.206 3.087 12.702 7.535 16.659 9.883 3.956 2.348 9.579 5.757 12.494 7.577 2.916 1.82 9.73 5.87 15.145 9.001s11.718 7.07 14.009 8.753c5.124 3.765 6.342 4.608 18.173 12.576 5.207 3.507 10.712 7.218 12.235 8.248 1.523 1.03 7.24 5.381 12.705 9.67 5.464 4.288 10.872 8.478 12.017 9.31 1.144.834 5.479 4.445 9.633 8.026 4.154 3.58 9.052 7.584 10.884 8.897 5.403 3.871 27.955 25.044 44.707 41.976 19.022 19.226 40.583 41.9 42.277 44.464.688 1.041 4.968 6.153 9.51 11.359 4.543 5.206 8.804 10.317 9.47 11.358.667 1.041 2.586 3.656 4.265 5.81 4.149 5.324 10.218 13.56 12.518 16.989 1.042 1.552 3.938 5.337 6.437 8.411s5.225 6.557 6.058 7.738c.833 1.181 2.55 3.55 3.815 5.264 1.265 1.713 3.635 5.33 5.266 8.038 3.307 5.488 7.183 11.449 14.032 21.58 9.504 14.06 21.521 34.591 29.252 49.979 4.393 8.746 8.41 16.413 8.923 17.038s2.293 4.032 3.954 7.572l5.425 11.562c1.323 2.82 2.407 5.443 2.407 5.83 0 .714 7.715 18.128 12.927 29.177 2.974 6.307 3.514 7.678 7.457 18.931 1.313 3.749 2.859 7.838 3.433 9.087 1.014 2.203 4.42 11.603 6.724 18.552.621 1.875 2.664 8.008 4.54 13.63 1.875 5.623 4.304 13.29 5.397 17.039 1.093 3.748 2.342 7.837 2.775 9.086.433 1.25 1.24 4.146 1.793 6.437 3.111 12.895 4.45 18.628 6.097 26.124 1.007 4.582 2.552 11.227 3.433 14.766.88 3.54 2.23 10.015 2.999 14.388.768 4.373 1.949 10.166 2.624 12.873 1.241 4.98 2.103 9.09 3.49 16.66.84 4.581 3.883 31.039 5.617 48.842.608 6.247 1.442 12.551 1.854 14.009 2.043 7.241 4.042 91.374 2.365 99.576-.425 2.082-1.103 9.92-1.506 17.416-.402 7.497-1.421 19.594-2.265 26.883-.843 7.288-2.381 20.748-3.418 29.911-1.037 9.163-2.107 17.852-2.38 19.31s-.965 5.206-1.541 8.33c-.576 3.123-1.598 7.894-2.273 10.6-.673 2.708-1.843 8.5-2.598 12.873-.755 4.374-2.1 10.678-2.987 14.01s-2.078 8.443-2.647 11.358c-.567 2.915-1.42 6.834-1.896 8.708a828.577 828.577 0 00-2.296 9.466l-2.51 10.6c-.592 2.5-1.612 6.248-2.268 8.33-1.403 4.46-3.39 11.025-6.192 20.446-1.113 3.748-2.989 9.37-4.167 12.494-1.178 3.124-3.535 9.809-5.239 14.856-1.703 5.047-3.609 10.159-4.235 11.359-.626 1.2-1.14 2.596-1.143 3.102 0 .507-.484 2.04-1.07 3.408-.587 1.368-2.148 5.383-3.469 8.923-1.32 3.54-3.593 8.992-5.05 12.116-6.82 14.616-12.375 27.147-12.375 27.917 0 1.197-10.821 23.938-12.12 25.468-.706.833-4.545 8.159-8.532 16.28-3.986 8.121-9.234 18.053-11.661 22.07-11.832 19.584-14.896 24.484-21.144 33.816-3.71 5.54-7.26 10.99-7.89 12.115-1.039 1.851-5.497 8.502-6.953 10.372-2.058 2.645-6.085 8.322-9.131 12.873-1.95 2.916-4.495 6.389-5.653 7.717s-4.15 5.168-6.648 8.53c-2.5 3.363-6.333 8.367-8.52 11.121-2.186 2.754-3.975 5.244-3.975 5.532 0 .288-1.79 2.47-3.975 4.847-2.187 2.378-5.168 5.88-6.626 7.781s-3.502 4.363-4.544 5.469-3.126 3.543-4.633 5.417c-9.104 11.318-46.115 49.856-58.182 60.579-3.046 2.707-10.108 9.157-15.694 14.335-5.585 5.177-12.7 11.35-15.812 13.716-3.113 2.368-8.294 6.568-11.515 9.333-13.975 12-22.693 18.548-44.476 33.405-5.83 3.977-13.157 9.072-16.28 11.323-3.124 2.25-8.406 5.695-11.738 7.653-3.331 1.959-9.897 6.09-14.59 9.18-4.694 3.091-12.549 7.786-17.457 10.433-4.907 2.648-10.439 5.834-12.291 7.081-1.852 1.247-6.775 3.899-10.94 5.892-4.165 1.994-9.276 4.637-11.358 5.874-5.074 3.014-23.027 11.934-29.154 14.486-2.707 1.127-6.285 2.686-7.95 3.464-16.537 7.725-35.674 15.633-43.921 18.151-2.499.763-6.738 2.267-9.42 3.341-2.682 1.075-5.243 1.954-5.69 1.954-.448 0-2.086.681-3.64 1.514-1.555.833-3.336 1.515-3.959 1.515-.624 0-4.118 1.19-7.765 2.643-3.646 1.453-9.186 3.32-12.31 4.15s-7.98 2.194-10.79 3.036c-2.812.84-7.412 2.22-10.223 3.064-12.674 3.804-26.719 7.54-34.266 9.115-1.874.391-5.111 1.202-7.194 1.803-5.622 1.621-20.75 4.647-38.24 7.65-6.039 1.037-14.898 2.565-19.688 3.397-29.17 5.064-34.015 5.64-56.553 6.733-26.238 1.271-2658.168 1.14-2658.65-.132z" fill="#6d6d6d"/><path d="M.693 1696.027V.563l865.703.09c476.132.048 871.838.38 879.344.737 7.497.357 21.979.983 32.183 1.393s20.256.915 22.338 1.126c2.083.21 15.202 1.23 29.154 2.267 34.475 2.562 53.014 4.108 55.278 4.608 1.936.429 22.017 2.878 34.706 4.233 3.887.416 10.361 1.269 14.388 1.896 14.906 2.323 42.144 6.773 50.483 8.247 3.332.589 9.295 1.593 13.252 2.23s7.875 1.361 8.708 1.606c.833.246 5.774 1.247 10.98 2.225 5.206.979 12.873 2.458 17.038 3.287 4.164.83 9.616 1.9 12.115 2.38 5.716 1.098 22.725 5.085 25.747 6.035 1.25.393 4.442 1.097 7.094 1.566 2.652.468 5.378 1.156 6.058 1.528.68.372 2.94 1.06 5.022 1.527 2.082.468 6.682 1.495 10.222 2.283 3.54.788 9.163 2.145 12.495 3.017 3.331.871 9.295 2.376 13.251 3.344 3.957.968 8.216 2.13 9.466 2.58 1.25.451 4.146 1.333 6.436 1.96 16.153 4.416 21.68 5.983 28.018 7.944a871.738 871.738 0 0015.524 4.597c9.498 2.705 23.598 6.974 30.289 9.171 2.498.82 6.076 1.94 7.95 2.486 1.875.547 5.964 1.913 9.087 3.035 3.124 1.122 13.176 4.54 22.339 7.594 18.32 6.107 25.98 8.871 43.54 15.712 6.455 2.515 13.611 5.246 15.902 6.07 2.29.824 7.913 3.132 12.494 5.13a946.398 946.398 0 0015.145 6.43c17.666 7.26 24.09 9.942 31.805 13.282a962.496 962.496 0 0015.144 6.39c3.749 1.53 8.52 3.6 10.602 4.597a350.85 350.85 0 008.33 3.818c14.413 6.353 33.589 15.557 39.67 19.042 3.17 1.816 16.668 8.748 29.996 15.403 13.328 6.656 26.277 13.33 28.776 14.832 16.22 9.746 21.185 12.63 24.397 14.168 1.992.954 4.764 2.392 6.16 3.195 7.976 4.588 13.032 7.61 16.392 9.8 2.083 1.356 5 2.971 6.482 3.59 1.482.618 5.352 2.787 8.6 4.82 8.1 5.068 16.876 10.678 20.508 13.11 1.666 1.115 5.524 3.542 8.573 5.393a842.337 842.337 0 017.348 4.502c.992.625 4.632 2.815 8.087 4.867s7.474 4.645 8.932 5.762c1.458 1.118 5.377 3.68 8.708 5.693 3.332 2.013 6.399 3.959 6.815 4.324.417.365 5.106 3.48 10.42 6.923 5.315 3.443 10.256 6.825 10.98 7.516 2.052 1.958 9.284 7.137 18.68 13.378 5.302 3.521 8.494 5.83 9.687 7.005.741.728 1.602 1.325 1.915 1.325.312 0 1.84 1.108 3.394 2.461s4.548 3.653 6.652 5.111a394.85 394.85 0 017.93 5.68l7.7 5.679c1.977 1.459 5.018 3.843 6.755 5.3 1.739 1.458 4.14 3.41 5.337 4.336 1.197.927 5.29 4.164 9.098 7.194 3.807 3.03 8.883 6.871 11.28 8.537 2.398 1.666 5.333 3.88 6.523 4.922s3.1 2.639 4.243 3.55c1.143.91 4.805 3.988 8.136 6.84 3.332 2.85 6.79 5.683 7.686 6.294.895.611 5.836 4.595 10.98 8.853a3793.096 3793.096 0 0013.316 10.98c2.181 1.78 7.803 6.896 12.495 11.366 4.692 4.47 8.788 8.134 9.105 8.14.315 0 4.925 4.017 10.244 8.91 5.32 4.894 11.861 10.772 14.537 13.062 15.519 13.283 89.041 86.763 107.688 107.624 2.372 2.654 8.178 9.085 12.904 14.29 4.725 5.207 11.473 13.043 14.997 17.414 3.522 4.371 7.598 9.257 9.055 10.857s2.96 3.476 3.337 4.168c.777 1.426 4.895 6.37 7.678 9.218 1.023 1.046 1.859 2.175 1.859 2.51s2.77 3.738 6.156 7.564c3.385 3.826 6.697 7.807 7.359 8.849.66 1.04 3.61 4.79 6.553 8.33 2.944 3.54 6.527 7.97 7.964 9.843 1.437 1.874 5.003 6.368 7.925 9.986 2.921 3.618 8.37 10.774 12.109 15.902 3.737 5.128 9.197 12.39 12.132 16.139 2.935 3.748 6.691 8.849 8.348 11.334 1.657 2.486 5.738 8.186 9.07 12.666s7.25 9.863 8.708 11.96 4.184 5.999 6.058 8.668a882.494 882.494 0 016.66 9.644c1.789 2.636 4.423 6.496 5.854 8.578 1.431 2.083 4.034 6.172 5.783 9.087 1.75 2.916 5.9 9.39 9.223 14.388l8.811 13.251c1.523 2.291 5.58 9.106 9.015 15.145 6.158 10.827 10.975 18.998 21.966 37.266 3.079 5.117 8.65 14.926 12.38 21.798 3.73 6.871 8.44 15.22 10.466 18.552 2.026 3.332 4.21 7.08 4.853 8.33.642 1.249 3.643 7.042 6.67 12.872 11.146 21.473 16.575 32.24 25.77 51.114 13.246 27.186 16.187 33.484 22.455 48.085 3.04 7.08 6.845 15.69 8.456 19.135s2.93 6.488 2.93 6.765.647 1.889 1.437 3.582c.792 1.694 2.694 6.146 4.228 9.894s4.177 10.052 5.872 14.009c1.696 3.957 3.516 8.831 4.045 10.833.53 2.002 1.26 4.047 1.622 4.544s1.385 2.778 2.272 5.068c2.689 6.946 8.619 22.791 10.486 28.018.966 2.707 3.178 8.841 4.915 13.63 7.076 19.512 8.56 23.758 13.626 38.998 11.106 33.407 15.777 47.837 16.67 51.492.509 2.082 1.162 4.127 1.45 4.543.29.417 1.302 3.654 2.25 7.194s2.54 9.333 3.541 12.873c1 3.54 2.204 7.8 2.673 9.466.47 1.665 1.263 4.391 1.762 6.057.499 1.666 2.367 9.163 4.151 16.66 1.783 7.496 5.915 24.534 9.18 37.862 3.266 13.327 6.308 26.105 6.761 28.396.453 2.29 1.65 8.424 2.66 13.63 1.01 5.206 2.546 13.043 3.413 17.416s2.214 11.188 2.991 15.145c.779 3.957 1.96 9.92 2.628 13.252.667 3.331 1.526 8.102 1.91 10.6a360.602 360.602 0 001.537 9.088 354.071 354.071 0 011.533 9.086c.733 4.808 2.413 14.598 3.716 21.65 1.205 6.518 3.484 24.8 7.213 57.86 1.033 9.162 2.22 19.385 2.636 22.717.787 6.276 1.386 13.367 3.843 45.433.797 10.412 1.775 22.68 2.173 27.26 3.075 35.392 3.096 160.826.029 198.017-.394 4.79-1.397 17.568-2.229 28.396s-1.854 24.118-2.274 29.53-1.098 12.4-1.51 15.524c-.41 3.124-1.26 10.62-1.89 16.66-.629 6.038-1.485 13.705-1.904 17.037-.418 3.332-1.45 11.85-2.293 18.931-2.308 19.399-2.791 23.033-3.773 28.396-.495 2.707-1.365 7.648-1.933 10.98-.567 3.332-1.704 9.976-2.526 14.766s-2.006 11.775-2.63 15.523c-2.069 12.438-3.31 18.982-7.327 38.618a2727.533 2727.533 0 00-3.336 16.66c-3.9 19.819-5.276 25.753-10.633 45.813-1.502 5.622-3.56 13.97-4.575 18.552-1.7 7.684-2.725 12.021-5.993 25.367a264.726 264.726 0 01-2.659 9.844c-1.963 6.653-5.124 17.633-6.54 22.717-2.101 7.552-4.275 14.598-8.642 28.018-2.371 7.288-7.096 21.94-10.5 32.56s-6.55 20.332-6.994 21.581c-.443 1.25-2.166 6.02-3.829 10.602a14515.71 14515.71 0 00-4.803 13.251 481.385 481.385 0 01-3.251 8.708c-.81 2.083-4.106 10.772-7.326 19.31-3.221 8.538-6.127 15.864-6.458 16.28-.331.417-1.329 2.973-2.217 5.68-1.576 4.81-6.074 15.914-7.973 19.688-.524 1.041-1.652 3.938-2.507 6.436-.855 2.5-4.348 10.677-7.763 18.174-3.416 7.497-6.988 15.675-7.939 18.174-4.664 12.255-7.172 17.78-18.903 41.649-6.959 14.16-12.97 26.428-13.356 27.26-.386.833-3.066 5.944-5.954 11.358a1189.333 1189.333 0 00-10.223 19.689c-2.734 5.414-7.519 14.103-10.633 19.309-3.114 5.206-7.815 13.725-10.449 18.931-5.501 10.877-17.559 32.214-19.47 34.453-.71.833-2.92 4.411-4.91 7.951-6.357 11.307-13.313 22.878-18.437 30.67-2.739 4.164-5.414 8.339-5.945 9.276-2.45 4.326-3.095 5.394-5.826 9.654-3.88 6.05-12.605 19.11-17.397 26.034a829.95 829.95 0 00-5.76 8.425c-3.96 5.932-10.177 14.662-12.94 18.169-1.669 2.118-6.726 9.176-12.427 17.344-4.695 6.728-9.15 12.844-10.808 14.838-2.643 3.181-8.501 11.079-8.501 11.461 0 .64-6.642 9.647-13.63 18.484-3.54 4.478-7.46 9.436-8.709 11.019-6.991 8.86-10.255 12.937-11.263 14.074-.622.702-1.74 2.235-2.488 3.408s-1.562 2.304-1.81 2.512c-.697.583-7.665 8.624-9.942 11.472-5.387 6.738-8.272 10.303-10.016 12.38-8.896 10.594-12.434 14.878-16.163 19.566-2.372 2.983-8.081 9.513-12.686 14.51-4.604 4.998-8.915 9.946-9.578 10.997-.664 1.05-9.543 10.421-19.731 20.824-10.189 10.403-20.228 20.788-22.31 23.079-4.764 5.243-48.073 48.106-61.206 60.575-19.981 18.973-22.86 21.667-27.284 25.54a1682.413 1682.413 0 00-9.063 8.005c-4.754 4.238-12.12 10.41-20.066 16.814-2.584 2.082-5.428 4.577-6.32 5.545-.892.967-3.98 3.693-6.862 6.058-2.882 2.364-5.786 4.81-6.454 5.435-.667.624-2.168 1.755-3.334 2.511-1.166.757-2.694 1.88-3.395 2.495-2.14 1.878-20.914 17.049-27.07 21.875-3.187 2.5-6.695 5.342-7.795 6.317-2.794 2.48-12.808 9.964-13.33 9.964-.238 0-3.066 2.039-6.287 4.53-9.925 7.679-17.738 13.545-23.273 17.475-2.916 2.07-5.983 4.273-6.816 4.896-6.061 4.531-8.805 6.417-9.335 6.417-.338 0-1.954 1.122-3.59 2.493-1.638 1.372-5.191 4.092-7.899 6.047-2.707 1.954-6.318 4.58-8.025 5.837-1.707 1.255-3.29 2.283-3.516 2.283-.56 0-11.884 7.647-18.083 12.21-2.759 2.03-5.263 3.692-5.566 3.692-.86 0-32.052 20.073-32.962 21.21-.693.87-16.791 10.736-19.968 12.239-1.72.814-5.513 2.982-8.428 4.818-5.496 3.46-13.619 8.243-20.343 11.976-2.139 1.186-4.4 2.587-5.025 3.112-.624.525-3.52 2.249-6.436 3.831-2.915 1.582-8.702 4.919-12.86 7.416-7.906 4.749-16.82 9.496-33.332 17.75-5.415 2.708-10.355 5.365-10.98 5.906-1.033.893-32.96 17.003-42.027 21.207-2.082.965-4.979 2.446-6.437 3.29-1.457.845-6.057 3.052-10.222 4.905l-18.552 8.256c-6.04 2.687-11.832 5.145-12.873 5.46-1.042.317-6.068 2.776-11.17 5.467-5.103 2.69-10.896 5.505-12.873 6.258-1.978.75-9.049 3.638-15.712 6.416-6.664 2.777-14.331 5.687-17.038 6.466-5.464 1.573-14.24 4.74-17.91 6.46-1.312.616-2.748 1.12-3.192 1.12-.444 0-1.926.494-3.293 1.098-1.368.605-7.175 2.841-12.906 4.97-5.73 2.13-11.352 4.36-12.494 4.955-1.141.595-2.519 1.085-3.06 1.088-.54 0-2.074.57-3.408 1.26-1.332.691-3.445 1.514-4.694 1.83-1.25.314-4.573 1.453-7.384 2.53-2.811 1.076-7.411 2.836-10.222 3.91a304.348 304.348 0 01-10.412 3.716c-2.916.97-8.197 2.784-11.737 4.032-6.249 2.202-13.638 4.404-26.125 7.784-3.332.902-10.488 3.154-15.902 5.004-18.138 6.198-25.453 8.324-46.569 13.528-6.039 1.49-12.002 3.007-13.252 3.374s-4.486 1.215-7.193 1.883c-2.707.669-6.626 1.849-8.709 2.622-2.082.774-6.171 1.975-9.086 2.67-2.916.693-7.005 1.727-9.087 2.296-3.87 1.057-13.663 3.413-20.445 4.919-2.083.462-8.046 1.64-13.252 2.617-17.646 3.312-22.333 4.251-24.611 4.928-1.25.372-3.635.895-5.301 1.164-1.666.268-4.051.79-5.3 1.161-1.25.37-5.169 1.212-8.709 1.87-3.54.656-10.014 1.869-14.388 2.693-9.549 1.799-14.59 2.64-24.61 4.11-4.166.61-11.833 1.808-17.038 2.662l-15.903 2.607c-3.54.58-8.48 1.444-10.98 1.918-7.132 1.354-16.67 2.547-57.17 7.155-9.371 1.066-19.594 2.277-22.718 2.691-8.666 1.15-23.7 2.157-50.356 3.377-15.727.718-25.03 1.45-26.502 2.082-1.847.791-168.47 1.011-890.314 1.17l-888.053.198V1696.01zm3769.648 895.222l.19-800.217 1324.032.087c958.543.062 1326.438.316 1332.741.92 31.31 3.003 66.834 7.492 70.423 8.9.625.245 6.247 1.263 12.495 2.262 6.247.999 12.891 2.181 14.766 2.627 1.874.446 4.77 1.094 6.436 1.44 16.213 3.368 25.52 5.52 32.75 7.573 3.02.857 7.84 2.214 10.71 3.016 2.87.801 8.748 2.512 13.062 3.802 4.313 1.29 9.206 2.723 10.872 3.183 1.666.46 5.251 1.646 7.967 2.634 2.716.988 5.442 1.808 6.057 1.823.617.024 2.483.684 4.15 1.488 1.665.805 3.344 1.475 3.731 1.489.684.024 3.552 1.027 23.15 8.085 15.24 5.488 21.36 7.882 24.99 9.773 1.874.977 5.451 2.546 7.95 3.486 2.499.94 4.884 1.934 5.3 2.21s3.825 1.756 7.573 3.291c6.903 2.827 16.399 7.389 25.367 12.186 2.707 1.448 8.114 4.035 12.014 5.749 3.9 1.714 10.629 5.123 14.951 7.577 4.322 2.454 8.16 4.462 8.528 4.462.367 0 1.104.523 1.634 1.163.532.64 3.144 2.429 5.807 3.976 2.662 1.546 5.987 3.493 7.388 4.326 1.402.833 4.198 2.47 6.213 3.637 2.016 1.168 4.176 2.43 4.801 2.806s3.01 1.767 5.3 3.092 5.129 3.215 6.306 4.2c1.177.983 2.438 1.788 2.802 1.788.364 0 2.158 1.01 3.988 2.246 1.83 1.235 4.147 2.596 5.15 3.024 1.002.428 4.207 2.51 7.122 4.626s6.525 4.644 8.02 5.618c1.495.973 3.199 2.23 3.786 2.791.587.563 3.452 2.542 6.368 4.4 2.915 1.857 7.413 4.92 9.995 6.806 2.582 1.886 6.452 4.622 8.6 6.08 2.149 1.457 4.466 3.277 5.15 4.043.684.767 3.301 2.875 5.815 4.685 2.514 1.809 5.208 3.993 5.986 4.853.778.86 1.732 1.563 2.12 1.563.387 0 1.783.996 3.1 2.212 4.81 4.441 14.845 12.851 18.976 15.903 2.33 1.722 8.972 7.806 14.757 13.521 5.786 5.715 12.517 12.248 14.959 14.518 8.6 7.997 27.984 27.22 33.972 33.689 14.714 15.9 17.157 18.555 22.328 24.277 3.011 3.331 6.309 7.08 7.327 8.33 1.02 1.249 3.546 4.292 5.614 6.762 2.069 2.47 4.861 5.981 6.206 7.804a351.771 351.771 0 005.541 7.246c1.703 2.163 3.547 4.785 4.096 5.826.823 1.562 10.507 14.092 13.243 17.134.422.47 2.13 2.81 3.796 5.202a397.717 397.717 0 005.609 7.828c1.419 1.914 3.766 5.536 5.214 8.05 2.615 4.535 8.908 14.41 10.136 15.906 2.914 3.548 8.195 11.402 8.195 12.188 0 .538.442 1.428.983 1.979.54.55 2.143 3.045 3.56 5.544s3.048 5.022 3.623 5.607c.576.585 1.377 1.778 1.78 2.65.403.873 1.559 2.95 2.569 4.616 1.01 1.666 2.206 3.874 2.659 4.906.452 1.033 1.129 2.068 1.504 2.299.374.231 3.754 6.813 7.51 14.625s7.664 15.297 8.682 16.632c1.95 2.56 8.93 17.445 12.68 27.039 1.22 3.123 3.103 7.553 4.184 9.844 1.08 2.29 2.549 5.528 3.262 7.194a304.588 304.588 0 002.87 6.436c5.432 11.763 10.395 24.566 15.707 40.511 1.933 5.806 6.351 17.764 7.057 19.1.632 1.199 1.852 5.177 7.03 22.927 4.014 13.762 5.773 20.308 7.227 26.882.645 2.916 1.652 7.345 2.238 9.844s1.387 6.077 1.78 7.951c.392 1.875 1.434 6.304 2.314 9.844.882 3.54 2.228 10.355 2.994 15.145s2.277 12.116 3.36 16.28c2.523 9.704 3.17 13.675 4.934 30.29.796 7.496 1.649 15.163 1.896 17.037 2.266 17.234 3.656 31.552 4.296 44.298.42 8.33 1.083 15.737 1.475 16.46.892 1.647.961 66.97.067 67.521-.352.217-.876 7.138-1.165 15.379s-.836 16.005-1.217 17.255c-.381 1.25-1.217 7.553-1.857 14.009-3.647 36.782-5.464 51.47-7.213 58.307-1.713 6.695-3.15 13.372-4.563 21.202-.79 4.374-2.168 10.848-3.063 14.388-.894 3.54-2.464 10.185-3.487 14.766-1.023 4.581-2.5 11.056-3.281 14.387a1897.12 1897.12 0 00-2.537 10.98c-.614 2.708-1.855 7.308-2.757 10.223a741.43 741.43 0 00-3.18 10.601c-1.375 4.736-3.456 10.808-11.296 32.94-8.414 23.759-17.19 45.74-23.457 58.762-1.223 2.542-2.225 4.84-2.225 5.107 0 2.41-26.937 55.473-34.465 67.89-2.651 4.372-5.398 8.972-6.103 10.222-.706 1.25-2.394 3.975-3.752 6.058-1.358 2.082-3.105 4.979-3.882 6.436-.776 1.458-4.305 6.837-7.84 11.953s-6.953 10.227-7.594 11.358c-.64 1.132-3.195 5.123-5.678 8.872-2.481 3.748-4.65 7.156-4.819 7.572-.376.93-5.394 7.592-12.546 16.66-2.957 3.748-6.018 7.828-6.803 9.067-1.61 2.538-1.79 2.78-4.811 6.456-1.198 1.458-2.494 3.232-2.878 3.943-.386.712-2.787 3.609-5.336 6.437-6.356 7.053-8.8 10.033-10.527 12.833-1.742 2.826-16.82 19.279-33.205 36.231-28.234 29.211-50.308 50.108-63.227 59.852-2.186 1.649-6.654 5.299-9.928 8.11-3.274 2.81-6.164 5.11-6.421 5.11s-3.43 2.571-7.051 5.712c-3.622 3.141-8.416 6.975-10.655 8.519s-5.647 3.914-7.573 5.267a886.525 886.525 0 01-8.423 5.812c-2.707 1.844-7.648 5.27-10.98 7.613-3.332 2.342-7.421 5.177-9.087 6.299-1.666 1.121-5.074 3.526-7.572 5.345-2.5 1.817-6.891 4.545-9.76 6.062-8.533 4.51-9.155 4.861-9.55 5.395-.21.281-3.956 2.497-8.33 4.924-7.64 4.242-18.331 10.336-24.125 13.753-1.516.894-5.995 3.248-9.951 5.231-3.957 1.984-8.898 4.68-10.98 5.995-5.108 3.222-47.005 23.116-48.684 23.116-.284 0-2.225.816-4.313 1.813-6.367 3.041-25.692 10.856-32.573 13.172-2.498.841-8.973 3.119-14.387 5.062-11.277 4.046-13.736 4.87-21.581 7.234-3.124.94-6.872 2.124-8.33 2.63-3.461 1.2-12.072 3.796-17.795 5.364-2.499.684-5.906 1.703-7.572 2.263-4.724 1.59-33.879 8.648-35.736 8.65-.912 0-1.845.305-2.073.673-.229.368-2.718 1.06-5.535 1.538-9.196 1.56-19.425 3.596-28.215 5.616-2.708.622-7.308 1.344-10.223 1.604-2.915.26-6.493.782-7.95 1.158-2.385.617-11.136 1.962-24.99 3.844-6.71.912-21.739 2.218-34.076 2.962-5.622.34-605.275.655-1332.548.7l-1322.324.081.19-800.217zm-.19-1790.66V.562l1323.84.073c752.678.04 1326.775.357 1330.648.735 3.748.365 10.734 1.182 15.523 1.816 4.79.634 15.353 1.827 23.475 2.653 8.12.826 15.618 1.697 16.659 1.936 1.041.238 5.812 1.12 10.601 1.958 4.79.84 12.456 2.188 17.038 2.997s12.534 2.15 17.674 2.98c5.14.829 9.65 1.697 10.026 1.93.376.23 4.008 1.104 8.072 1.94 12.215 2.511 13.347 2.783 18.03 4.32 4.792 1.573 8.063 2.543 27.223 8.069 6.663 1.922 14.5 4.184 17.416 5.028 5.215 1.509 9.927 3.137 17.43 6.024 2.091.804 4.028 1.462 4.306 1.462s1.463.394 2.636.875c3.038 1.247 7.299 2.824 21.062 7.798 6.664 2.407 14.16 5.328 16.66 6.49 2.498 1.161 7.439 3.322 10.98 4.802 3.54 1.48 8.571 3.727 11.18 4.993 2.61 1.266 5.08 2.303 5.49 2.303s2.364.814 4.342 1.809c1.978.995 9.73 4.774 17.228 8.4 12.42 6.005 38.841 20.363 39.755 21.604.21.283 1.293.993 2.41 1.577 4.096 2.144 12.367 7.005 12.735 7.485.21.272 2.423 1.642 4.922 3.044 2.499 1.403 4.72 2.807 4.937 3.121s1.24.95 2.272 1.414c1.033.464 3.122 1.593 4.643 2.509 1.52.915 5.099 2.993 7.951 4.617 4.437 2.527 9.15 5.73 15.787 10.728.833.627 6.115 4.194 11.737 7.927 14.997 9.955 15.565 10.357 24.232 17.144 4.373 3.424 9.41 7.351 11.194 8.726 1.784 1.375 5.483 4.545 8.221 7.044 2.737 2.498 5.56 4.884 6.273 5.3 1.118.654 14.36 11.448 17.404 14.186 8.249 7.425 47.452 45.84 50.82 49.8 1.948 2.29 8.535 9.204 14.637 15.361 6.102 6.159 11.094 11.522 11.094 11.919s1.73 2.685 3.845 5.084c2.114 2.4 4.754 5.47 5.868 6.825 1.113 1.355 3.217 3.759 4.675 5.342 2.668 2.9 4.094 4.715 7.572 9.647 1.041 1.476 3.545 4.798 5.564 7.382 2.02 2.584 4.029 5.38 4.465 6.213.437.833 1.255 1.787 1.819 2.12.564.333 1.025.976 1.025 1.43s1.959 3.24 4.354 6.19c6.063 7.472 5.771 7.092 9.956 12.977 2.074 2.915 4.267 5.862 4.875 6.549.608.686 2.058 2.901 3.222 4.922 1.163 2.02 4.35 7.043 7.08 11.161 2.733 4.118 5.307 8.037 5.723 8.708.416.672 1.994 2.925 3.507 5.007 1.514 2.082 3.311 4.809 3.994 6.058 3.99 7.298 6.032 10.745 7.034 11.874.622.7 1.695 2.298 2.386 3.55 1.133 2.057 5.929 10.13 7.704 12.972.391.625 3.805 7.435 7.586 15.134 3.782 7.698 7.31 14.514 7.843 15.145 1.415 1.677 11.818 23.704 11.818 25.02 0 .573 7.766 18.052 13.349 30.041 2.91 6.254 5.66 13.304 8.332 21.368 1.023 3.09 2.09 5.985 2.37 6.436.618.995 3.467 8.753 5.864 15.964a697.122 697.122 0 004.056 11.737c2.075 5.819 6.042 18.439 8.926 28.396 1.914 6.609 4.8 18.484 8.1 33.318a857.515 857.515 0 003.816 16.28c1.081 4.374 2.465 11.018 3.076 14.767.611 3.748 1.663 9.03 2.336 11.737.674 2.707 1.734 7.818 2.356 11.358.622 3.54 1.448 7.63 1.835 9.087.386 1.458 1.077 6.91 1.536 12.116.458 5.206 1.132 12.021 1.497 15.145.365 3.123 1.367 11.642 2.225 18.93 2.132 18.105 2.846 26.962 2.94 36.492.046 4.488.418 8.304.838 8.563.486.3.757 12.361.757 33.698s-.27 33.398-.757 33.698c-.42.26-.791 4.07-.833 8.564-.046 4.452-.353 11.332-.692 15.289-1.366 15.961-3.08 31.574-3.742 34.076-.384 1.457-1.388 9.636-2.231 18.173-1.5 15.204-3.295 26.508-5.773 36.347-.681 2.708-1.868 8.5-2.638 12.873-1.432 8.136-1.904 10.35-4.044 18.931-.674 2.707-2.107 8.841-3.183 13.63-3.44 15.31-5.672 24.518-6.79 28.018-.6 1.875-2.946 9.542-5.216 17.038-2.268 7.497-5.531 17.55-7.251 22.339s-3.815 10.752-4.657 13.251c-.841 2.5-1.988 5.566-2.548 6.815-.56 1.25-2.613 6.702-4.564 12.116-1.95 5.414-4.912 12.74-6.581 16.28-3.39 7.19-4.281 9.145-9.243 20.26-1.906 4.272-3.466 8.058-3.466 8.414 0 1.223-10.834 23.954-12.14 25.468-.717.833-4.237 7.57-7.82 14.971-3.584 7.401-8.993 17.564-12.02 22.583-14.48 24.011-23.5 38.31-27.608 43.769-1.378 1.83-2.505 3.644-2.505 4.032s-1.62 2.902-3.597 5.586a445.763 445.763 0 00-7.004 9.838c-1.874 2.725-6.645 9.108-10.602 14.182s-8.216 10.758-9.465 12.63c-2.213 3.313-10.253 13.602-14.798 18.934-1.242 1.458-5.994 7.08-10.559 12.495-11.567 13.717-17.423 20.171-30.6 33.724-6.29 6.47-13.178 13.626-15.305 15.902-2.128 2.276-7.747 7.716-12.486 12.089a3845.597 3845.597 0 00-14.306 13.265c-10.026 9.368-14.759 13.537-19.33 17.024-2.455 1.875-7.454 5.964-11.107 9.087-3.654 3.124-9.055 7.554-12 9.844-2.948 2.291-5.948 4.676-6.669 5.3-.72.626-2.749 2.16-4.508 3.408a750.315 750.315 0 00-7.547 5.46c-4.27 3.132-24.879 17.286-27.33 18.772-.687.416-3.34 2.35-5.895 4.299-2.556 1.947-6.475 4.604-8.708 5.902-6.448 3.748-6.772 3.946-13.15 8.04-10.091 6.48-16.001 9.995-21.379 12.718-2.818 1.426-6.487 3.532-8.153 4.679-1.666 1.147-8.31 4.792-14.766 8.1-6.455 3.307-12.13 6.334-12.609 6.725-1.252 1.022-20.943 10.663-26.767 13.105-2.707 1.136-6.66 2.887-8.784 3.892s-4.084 1.827-4.357 1.827c-.272 0-3.645 1.476-7.497 3.281-10.092 4.73-18.895 8.407-26.69 11.15a826.641 826.641 0 00-12.494 4.525c-3.124 1.169-6.701 2.369-7.95 2.667-1.25.299-3.124.975-4.166 1.504-3.681 1.87-30.914 10.665-43.54 14.062-1.25.336-3.975 1.106-6.058 1.712-9.052 2.632-16.675 4.695-21.202 5.738-1.666.384-5.926 1.41-9.466 2.28-13.436 3.3-25.699 5.8-43.162 8.8a7064.188 7064.188 0 00-19.688 3.412c-27.398 4.804-34.6 5.666-56.07 6.711-11.252.548-426.332.795-1337.456.795H3770.17V800.577z" fill="#505050"/><path d="M1.415 2714.161v-1.893h1525.06c1338.828 0 1525.061.135 1525.061 1.11 0 .61-.659 1.461-1.464 1.893-1.009.539-476.252.784-1525.06.784H1.393zm3769.408 0v-1.893H7154.82v3.787H3770.823zM1.415 2035.678v-1.893h3355.37v3.786H1.414zm3769.408 0v-1.893h1582.823c1431.355 0 1582.993.113 1584.508 1.178.926.649 1.684 1.5 1.684 1.894 0 .447-592.188.714-1584.508.714H3770.822zM1.415 1357.194c0-1.01 186.911-1.136 1677.66-1.136s1677.661.128 1677.661 1.136c0 1.01-186.911 1.136-1677.66 1.136s-1677.66-.128-1677.66-1.136zm3769.408 0c0-1.01 176.53-1.136 1584.219-1.136 1408.115 0 1584.123.125 1583.28 1.136-.837 1.009-177.788 1.136-1584.218 1.136-1406.864 0-1583.281-.128-1583.281-1.136zM1.415 678.71c0-1.009 169.905-1.135 1524.604-1.135 1354.273 0 1524.7.127 1525.541 1.135.838 1.01-168.646 1.136-1524.603 1.136-1355.524 0-1525.542-.127-1525.542-1.136zm3769.408 0c0-1.009 188.508-1.135 1692.047-1.135 1503.529 0 1692.047.127 1692.047 1.135 0 1.01-188.509 1.136-1692.047 1.136-1503.529 0-1692.047-.127-1692.047-1.136z" fill="#4d4d4d"/></g></svg>